<?xml version="1.0" encoding="utf-8"?>
<!-- Generator: Adobe Illustrator 26.2.1, SVG Export Plug-In . SVG Version: 6.00 Build 0)  -->
<svg version="1.1" id="Capa_1" xmlns="http://www.w3.org/2000/svg" xmlns:xlink="http://www.w3.org/1999/xlink" x="0px" y="0px"
	 viewBox="0 0 1003.66 1259.74" style="enable-background:new 0 0 1003.66 1259.74;" xml:space="preserve">
<style type="text/css">
	.st0{fill:url(#SVGID_1_);}
	.st1{fill:url(#SVGID_00000057834990779941327640000017419905757010916780_);}
	.st2{fill:url(#SVGID_00000083792178942931773040000015947246948209660035_);}
	.st3{fill:url(#SVGID_00000125600787180448015520000007151756531986951055_);}
	.st4{fill:url(#SVGID_00000150063254847588523440000016470757859349840562_);}
	.st5{fill:url(#SVGID_00000026122060002280341410000001059375804813933200_);}
	.st6{fill:url(#SVGID_00000116196937391443283240000010302071342963013514_);}
	.st7{fill:url(#SVGID_00000145018780531432508100000017032898691558177180_);}
	.st8{fill:url(#SVGID_00000114796549827744216770000016647699392236465030_);}
	.st9{fill:url(#SVGID_00000145029889925949716440000007566546091433651133_);}
	.st10{fill:url(#SVGID_00000006675547348029405090000006855958656828509371_);}
	.st11{fill:url(#SVGID_00000046327432141906200090000003218557660574420120_);}
	.st12{fill:url(#SVGID_00000095332285837077818760000001210790401645152444_);}
	.st13{fill:url(#SVGID_00000076593094309742404980000003845243252446152066_);}
	.st14{fill:url(#SVGID_00000118399319690633845020000011053366095836976302_);}
</style>
<linearGradient id="SVGID_1_" gradientUnits="userSpaceOnUse" x1="565.2893" y1="707.1277" x2="565.2893" y2="72.1499">
	<stop  offset="0" style="stop-color:#C62370"/>
	<stop  offset="0.4693" style="stop-color:#FFFFFF"/>
	<stop  offset="0.5286" style="stop-color:#F8EDEE"/>
	<stop  offset="0.6471" style="stop-color:#E5C0C3"/>
	<stop  offset="0.8137" style="stop-color:#C7767C"/>
	<stop  offset="1" style="stop-color:#A21C26"/>
</linearGradient>
<path class="st0" d="M303.85,526.36c126.07-228.81,275.73-346.42,366.13-404.43C761.59,63.15,786.31,70,797.13,75.98
	c77.39,42.74-10.61,352.29-107.23,631.15"/>
<linearGradient id="SVGID_00000129186659570073715020000007544113832746587312_" gradientUnits="userSpaceOnUse" x1="476.5042" y1="829.4735" x2="476.5042" y2="495.3931">
	<stop  offset="0" style="stop-color:#80217E;stop-opacity:0.5"/>
	<stop  offset="0.0417" style="stop-color:#862C84;stop-opacity:0.548"/>
	<stop  offset="0.1151" style="stop-color:#974996;stop-opacity:0.6326"/>
	<stop  offset="0.2116" style="stop-color:#B379B1;stop-opacity:0.7437"/>
	<stop  offset="0.326" style="stop-color:#D8BBD7;stop-opacity:0.8755"/>
	<stop  offset="0.4341" style="stop-color:#FFFFFF"/>
	<stop  offset="0.4974" style="stop-color:#F8EDEE"/>
	<stop  offset="0.6237" style="stop-color:#E5C0C3"/>
	<stop  offset="0.8013" style="stop-color:#C7767C"/>
	<stop  offset="1" style="stop-color:#A21C26"/>
</linearGradient>
<polygon style="fill:url(#SVGID_00000129186659570073715020000007544113832746587312_);" points="658.81,829.47 231.95,625.96 
	294.2,495.39 721.06,698.91 "/>
<linearGradient id="SVGID_00000087385669573517573180000007010967988965295014_" gradientUnits="userSpaceOnUse" x1="377.3216" y1="797.0918" x2="471.4409" y2="742.752">
	<stop  offset="0" style="stop-color:#C62370;stop-opacity:0.2"/>
	<stop  offset="0.1119" style="stop-color:#C4226C;stop-opacity:0.2895"/>
	<stop  offset="0.3028" style="stop-color:#BF2261;stop-opacity:0.4423"/>
	<stop  offset="0.5498" style="stop-color:#B6204E;stop-opacity:0.6398"/>
	<stop  offset="0.84" style="stop-color:#AA1E35;stop-opacity:0.872"/>
	<stop  offset="1" style="stop-color:#A21C26"/>
</linearGradient>
<polygon style="fill:url(#SVGID_00000087385669573517573180000007010967988965295014_);" points="412.44,711.32 467.5,735.92 
	462.81,813.24 356.21,760.52 "/>
<linearGradient id="SVGID_00000051377770049798715780000011291200346951331510_" gradientUnits="userSpaceOnUse" x1="507.1514" y1="860.2833" x2="601.2706" y2="805.9435">
	<stop  offset="0" style="stop-color:#C62370;stop-opacity:0.2"/>
	<stop  offset="0.1119" style="stop-color:#C4226C;stop-opacity:0.2895"/>
	<stop  offset="0.3028" style="stop-color:#BF2261;stop-opacity:0.4423"/>
	<stop  offset="0.5498" style="stop-color:#B6204E;stop-opacity:0.6398"/>
	<stop  offset="0.84" style="stop-color:#AA1E35;stop-opacity:0.872"/>
	<stop  offset="1" style="stop-color:#A21C26"/>
</linearGradient>
<polygon style="fill:url(#SVGID_00000051377770049798715780000011291200346951331510_);" points="542.27,774.51 597.33,799.11 
	592.64,876.43 486.04,823.71 "/>
<linearGradient id="SVGID_00000104677342339493034280000001494339460213363873_" gradientUnits="userSpaceOnUse" x1="144.1307" y1="1037.7626" x2="144.1307" y2="724.1985">
	<stop  offset="0" style="stop-color:#FFFFFF"/>
	<stop  offset="0.0699" style="stop-color:#FEFDED;stop-opacity:0.9369"/>
	<stop  offset="0.2094" style="stop-color:#FCF8C0;stop-opacity:0.811"/>
	<stop  offset="0.4035" style="stop-color:#F9F177;stop-opacity:0.636"/>
	<stop  offset="0.5542" style="stop-color:#F7EA3A;stop-opacity:0.5"/>
	<stop  offset="0.609" style="stop-color:#E0BE3A;stop-opacity:0.5615"/>
	<stop  offset="0.664" style="stop-color:#CC9636;stop-opacity:0.6231"/>
	<stop  offset="0.7199" style="stop-color:#BD7332;stop-opacity:0.6859"/>
	<stop  offset="0.7759" style="stop-color:#B2562E;stop-opacity:0.7486"/>
	<stop  offset="0.8318" style="stop-color:#AA3E2A;stop-opacity:0.8113"/>
	<stop  offset="0.8877" style="stop-color:#A62E28;stop-opacity:0.8741"/>
	<stop  offset="0.9437" style="stop-color:#A32227;stop-opacity:0.9369"/>
	<stop  offset="1" style="stop-color:#A21C26"/>
</linearGradient>
<path style="fill:url(#SVGID_00000104677342339493034280000001494339460213363873_);" d="M276.28,724.23
	c-1.26-0.72-7.22,9.75-15.32,19.4c-47.6,56.79-123.28,31.27-157.28,73.53c-32.15,39.96-3.61,111.41,1.02,111.32
	c3.87-0.08-3.47-50.26,28.6-88.85c10.19-12.27,24.68-23.74,27.57-21.45c3.08,2.45-8.13,19.7-18.38,39.83
	c-23.64,46.4-19.62,63.81-32.68,91.91c-29.74,64-100.74,81.7-98.04,86.81c2.79,5.27,80.97-8.92,115.4-66.38
	c13.63-22.73,22.06-55,30.64-87.83c8.53-32.65,10.69-52.36,28.6-67.4c14.98-12.59,22.41-6.29,41.87-18.38
	C265.38,773.69,278.79,725.68,276.28,724.23z"/>
<linearGradient id="SVGID_00000072265343200336238040000014341287069325487256_" gradientUnits="userSpaceOnUse" x1="371.7079" y1="1035.0719" x2="371.7079" y2="721.5078" gradientTransform="matrix(-0.2199 -0.4098 -0.8812 0.4728 1132.1327 638.0147)">
	<stop  offset="0" style="stop-color:#FFFFFF"/>
	<stop  offset="0.0699" style="stop-color:#FEFDED;stop-opacity:0.9369"/>
	<stop  offset="0.2094" style="stop-color:#FCF8C0;stop-opacity:0.811"/>
	<stop  offset="0.4035" style="stop-color:#F9F177;stop-opacity:0.636"/>
	<stop  offset="0.5542" style="stop-color:#F7EA3A;stop-opacity:0.5"/>
	<stop  offset="0.609" style="stop-color:#E0BE3A;stop-opacity:0.5615"/>
	<stop  offset="0.664" style="stop-color:#CC9636;stop-opacity:0.6231"/>
	<stop  offset="0.7199" style="stop-color:#BD7332;stop-opacity:0.6859"/>
	<stop  offset="0.7759" style="stop-color:#B2562E;stop-opacity:0.7486"/>
	<stop  offset="0.8318" style="stop-color:#AA3E2A;stop-opacity:0.8113"/>
	<stop  offset="0.8877" style="stop-color:#A62E28;stop-opacity:0.8741"/>
	<stop  offset="0.9437" style="stop-color:#A32227;stop-opacity:0.9369"/>
	<stop  offset="1" style="stop-color:#A21C26"/>
</linearGradient>
<path style="fill:url(#SVGID_00000072265343200336238040000014341287069325487256_);" d="M385.54,772.66
	c0.91,0.17-7,7.57-13.73,15.45c-39.58,46.36-0.45,65.31-30.21,99.22c-28.14,32.07-97.38,54.15-98.32,52.21
	c-0.78-1.63,45.05-22.34,72.01-53.73c8.57-9.98,15.49-21.34,12.84-21.44c-2.83-0.11-15.57,12.65-31.06,26.36
	c-35.69,31.63-51.92,38.21-73.81,56.85c-49.86,42.44-49.84,79.91-54.94,81.22c-5.26,1.35-9.94-37.4,33.12-78.68
	c17.04-16.33,43.62-35.04,70.66-54.08c26.89-18.93,43.79-29.14,53.11-43.59c7.8-12.09,0.61-12.16,6.99-25.85
	C344.36,800.51,383.71,772.31,385.54,772.66z"/>
<linearGradient id="SVGID_00000170982751174005912690000008650622994876186009_" gradientUnits="userSpaceOnUse" x1="470.1169" y1="1080.4829" x2="470.1169" y2="766.9188" gradientTransform="matrix(-0.2971 -0.3578 -0.7694 0.6388 1067.8474 458.3028)">
	<stop  offset="0" style="stop-color:#FFFFFF"/>
	<stop  offset="0.0699" style="stop-color:#FEFDED;stop-opacity:0.9369"/>
	<stop  offset="0.2094" style="stop-color:#FCF8C0;stop-opacity:0.811"/>
	<stop  offset="0.4035" style="stop-color:#F9F177;stop-opacity:0.636"/>
	<stop  offset="0.5542" style="stop-color:#F7EA3A;stop-opacity:0.5"/>
	<stop  offset="0.5957" style="stop-color:#DAB439;stop-opacity:0.6062"/>
	<stop  offset="0.6372" style="stop-color:#C38134;stop-opacity:0.7123"/>
	<stop  offset="0.6745" style="stop-color:#B3592E;stop-opacity:0.8076"/>
	<stop  offset="0.7068" style="stop-color:#A93A2A;stop-opacity:0.8903"/>
	<stop  offset="0.733" style="stop-color:#A42627;stop-opacity:0.9573"/>
	<stop  offset="0.7497" style="stop-color:#A21C26"/>
	<stop  offset="1" style="stop-color:#009DE0;stop-opacity:0.2"/>
</linearGradient>
<path style="fill:url(#SVGID_00000170982751174005912690000008650622994876186009_);" d="M298.86,732.76
	c0.93-0.01-5.35,8.81-10.38,17.88c-29.55,53.31,12.56,64.09-9.85,103.25c-21.19,37.03-84.64,72.47-85.95,70.75
	c-1.09-1.44,39.7-30.87,59.86-66.99c6.41-11.48,10.93-24,8.31-23.57c-2.8,0.46-12.74,15.5-25.18,32.02
	c-28.68,38.1-43.27,47.79-61.01,70.41c-40.4,51.52-32.93,88.24-37.66,90.54c-4.88,2.37-17.19-34.67,16.79-83.7
	c13.44-19.4,35.76-43.03,58.47-67.07c22.58-23.91,37.11-37.28,43.36-53.29c5.23-13.4-1.82-12.04,1.7-26.73
	C264.05,768.25,297,732.79,298.86,732.76z"/>
<linearGradient id="SVGID_00000137828466285867327100000003074265496229711797_" gradientUnits="userSpaceOnUse" x1="117.8764" y1="954.512" x2="117.8764" y2="640.9479" gradientTransform="matrix(-0.2199 -0.4098 -0.8812 0.4728 1132.1327 638.0147)">
	<stop  offset="0" style="stop-color:#FFFFFF"/>
	<stop  offset="0.0699" style="stop-color:#FEFDED;stop-opacity:0.9369"/>
	<stop  offset="0.2094" style="stop-color:#FCF8C0;stop-opacity:0.811"/>
	<stop  offset="0.4035" style="stop-color:#F9F177;stop-opacity:0.636"/>
	<stop  offset="0.5542" style="stop-color:#F7EA3A;stop-opacity:0.5"/>
	<stop  offset="0.609" style="stop-color:#E0BE3A;stop-opacity:0.5615"/>
	<stop  offset="0.664" style="stop-color:#CC9636;stop-opacity:0.6231"/>
	<stop  offset="0.7199" style="stop-color:#BD7332;stop-opacity:0.6859"/>
	<stop  offset="0.7759" style="stop-color:#B2562E;stop-opacity:0.7486"/>
	<stop  offset="0.8318" style="stop-color:#AA3E2A;stop-opacity:0.8113"/>
	<stop  offset="0.8877" style="stop-color:#A62E28;stop-opacity:0.8741"/>
	<stop  offset="0.9437" style="stop-color:#A32227;stop-opacity:0.9369"/>
	<stop  offset="1" style="stop-color:#A21C26"/>
</linearGradient>
<path style="fill:url(#SVGID_00000137828466285867327100000003074265496229711797_);" d="M512.34,838.59
	c0.91,0.17-7,7.57-13.73,15.45c-39.58,46.36-0.45,65.31-30.21,99.22c-28.14,32.07-97.38,54.15-98.32,52.21
	c-0.78-1.63,45.05-22.34,72.01-53.73c8.57-9.98,15.49-21.34,12.84-21.44c-2.83-0.11-15.57,12.65-31.06,26.36
	c-35.69,31.63-51.92,38.21-73.81,56.85c-49.86,42.44-49.84,79.91-54.94,81.22c-5.26,1.35-9.94-37.4,33.12-78.68
	c17.04-16.33,43.62-35.04,70.66-54.08c26.89-18.93,43.79-29.14,53.11-43.59c7.8-12.09,0.61-12.16,6.99-25.85
	C471.15,866.44,510.51,838.25,512.34,838.59z"/>
<linearGradient id="SVGID_00000139979288775140789620000003419227083891846543_" gradientUnits="userSpaceOnUse" x1="430.0543" y1="1173.4889" x2="430.0543" y2="859.9248">
	<stop  offset="0" style="stop-color:#FFFFFF"/>
	<stop  offset="0.0699" style="stop-color:#FEFDED;stop-opacity:0.9369"/>
	<stop  offset="0.2094" style="stop-color:#FCF8C0;stop-opacity:0.811"/>
	<stop  offset="0.4035" style="stop-color:#F9F177;stop-opacity:0.636"/>
	<stop  offset="0.5542" style="stop-color:#F7EA3A;stop-opacity:0.5"/>
	<stop  offset="0.5832" style="stop-color:#E0BE3A;stop-opacity:0.4877"/>
	<stop  offset="0.6122" style="stop-color:#CC9636;stop-opacity:0.4754"/>
	<stop  offset="0.6418" style="stop-color:#BD7332;stop-opacity:0.4628"/>
	<stop  offset="0.6714" style="stop-color:#B2562E;stop-opacity:0.4503"/>
	<stop  offset="0.701" style="stop-color:#AA3E2A;stop-opacity:0.4377"/>
	<stop  offset="0.7306" style="stop-color:#A62E28;stop-opacity:0.4252"/>
	<stop  offset="0.7602" style="stop-color:#A32227;stop-opacity:0.4126"/>
	<stop  offset="0.7899" style="stop-color:#A21C26;stop-opacity:0.4"/>
	<stop  offset="1" style="stop-color:#68A8DE"/>
</linearGradient>
<path style="fill:url(#SVGID_00000139979288775140789620000003419227083891846543_);" d="M562.2,859.96
	c-1.26-0.72-7.22,9.75-15.32,19.4c-47.6,56.79-123.28,31.27-157.28,73.53c-32.15,39.96-3.61,111.41,1.02,111.32
	c3.87-0.08-3.47-50.26,28.6-88.85c10.19-12.27,24.68-23.74,27.57-21.45c3.08,2.45-8.13,19.7-18.38,39.83
	c-23.64,46.4-19.62,63.81-32.68,91.91c-29.74,64-100.74,81.7-98.04,86.81c2.79,5.27,80.97-8.92,115.4-66.38
	c13.63-22.73,22.06-55,30.64-87.83c8.53-32.65,10.69-52.36,28.6-67.4c14.98-12.59,22.41-6.29,41.87-18.38
	C551.3,909.41,564.71,861.41,562.2,859.96z"/>
<linearGradient id="SVGID_00000067200296400588712580000004940227510883586751_" gradientUnits="userSpaceOnUse" x1="293.7138" y1="1109.9144" x2="293.7138" y2="796.3503">
	<stop  offset="0" style="stop-color:#FFFFFF"/>
	<stop  offset="0.0699" style="stop-color:#FEFDED;stop-opacity:0.9369"/>
	<stop  offset="0.2094" style="stop-color:#FCF8C0;stop-opacity:0.811"/>
	<stop  offset="0.4035" style="stop-color:#F9F177;stop-opacity:0.636"/>
	<stop  offset="0.5542" style="stop-color:#F7EA3A;stop-opacity:0.5"/>
	<stop  offset="0.609" style="stop-color:#E0BE3A;stop-opacity:0.5615"/>
	<stop  offset="0.664" style="stop-color:#CC9636;stop-opacity:0.6231"/>
	<stop  offset="0.7199" style="stop-color:#BD7332;stop-opacity:0.6859"/>
	<stop  offset="0.7759" style="stop-color:#B2562E;stop-opacity:0.7486"/>
	<stop  offset="0.8318" style="stop-color:#AA3E2A;stop-opacity:0.8113"/>
	<stop  offset="0.8877" style="stop-color:#A62E28;stop-opacity:0.8741"/>
	<stop  offset="0.9437" style="stop-color:#A32227;stop-opacity:0.9369"/>
	<stop  offset="1" style="stop-color:#A21C26"/>
</linearGradient>
<path style="fill:url(#SVGID_00000067200296400588712580000004940227510883586751_);" d="M425.86,796.39
	c-1.26-0.72-7.22,9.75-15.32,19.4c-47.6,56.79-123.28,31.27-157.28,73.53c-32.15,39.96-3.61,111.41,1.02,111.32
	c3.87-0.08-3.47-50.26,28.6-88.85c10.19-12.27,24.68-23.74,27.57-21.45c3.08,2.45-8.13,19.7-18.38,39.83
	c-23.64,46.4-19.62,63.81-32.68,91.91c-29.74,64-100.74,81.7-98.04,86.81c2.79,5.27,80.97-8.92,115.4-66.38
	c13.63-22.73,22.06-55,30.64-87.83c8.53-32.65,10.69-52.36,28.6-67.4c14.98-12.59,22.41-6.29,41.87-18.38
	C414.96,845.84,428.37,797.83,425.86,796.39z"/>
<linearGradient id="SVGID_00000052093176487787962380000003550465535660588981_" gradientUnits="userSpaceOnUse" x1="422.4934" y1="591.2272" x2="422.4934" y2="483.9932" gradientTransform="matrix(0.7484 -0.6632 0.6632 0.7484 -42.612 116.7326)">
	<stop  offset="0" style="stop-color:#FFFFFF"/>
	<stop  offset="0.0488" style="stop-color:#FAEDF4;stop-opacity:0.9426"/>
	<stop  offset="0.1461" style="stop-color:#EFC0D6;stop-opacity:0.828"/>
	<stop  offset="0.2829" style="stop-color:#DC76A6;stop-opacity:0.6668"/>
	<stop  offset="0.4246" style="stop-color:#C62370;stop-opacity:0.5"/>
	<stop  offset="0.4836" style="stop-color:#BF2261;stop-opacity:0.4897"/>
	<stop  offset="0.5686" style="stop-color:#B6204F;stop-opacity:0.475"/>
	<stop  offset="0.6547" style="stop-color:#AF1F40;stop-opacity:0.46"/>
	<stop  offset="0.7408" style="stop-color:#AA1E35;stop-opacity:0.445"/>
	<stop  offset="0.827" style="stop-color:#A61D2C;stop-opacity:0.4301"/>
	<stop  offset="0.9133" style="stop-color:#A31D28;stop-opacity:0.4151"/>
	<stop  offset="1" style="stop-color:#A21C26;stop-opacity:0.4"/>
</linearGradient>
<path style="fill:url(#SVGID_00000052093176487787962380000003550465535660588981_);" d="M540.72,318.12
	c19.64,22.16,75.6,4.65,124.99-39.12c49.39-43.77,73.51-97.22,53.87-119.38c-19.64-22.16-75.6-4.65-124.99,39.12
	C545.2,242.51,521.08,295.96,540.72,318.12z"/>
<linearGradient id="SVGID_00000145036705480827374180000009998618488574142639_" gradientUnits="userSpaceOnUse" x1="428.973" y1="557.6462" x2="428.973" y2="482.4109" gradientTransform="matrix(0.7484 -0.6632 0.6632 0.7484 -42.612 116.7326)">
	<stop  offset="0" style="stop-color:#FFFFFF"/>
	<stop  offset="0.0488" style="stop-color:#FAEDF4;stop-opacity:0.9426"/>
	<stop  offset="0.1461" style="stop-color:#EFC0D6;stop-opacity:0.828"/>
	<stop  offset="0.2829" style="stop-color:#DC76A6;stop-opacity:0.6668"/>
	<stop  offset="0.4246" style="stop-color:#C62370;stop-opacity:0.5"/>
	<stop  offset="0.4836" style="stop-color:#BF2261;stop-opacity:0.4897"/>
	<stop  offset="0.5686" style="stop-color:#B6204F;stop-opacity:0.475"/>
	<stop  offset="0.6547" style="stop-color:#AF1F40;stop-opacity:0.46"/>
	<stop  offset="0.7408" style="stop-color:#AA1E35;stop-opacity:0.445"/>
	<stop  offset="0.827" style="stop-color:#A61D2C;stop-opacity:0.4301"/>
	<stop  offset="0.9133" style="stop-color:#A31D28;stop-opacity:0.4151"/>
	<stop  offset="1" style="stop-color:#A21C26;stop-opacity:0.4"/>
</linearGradient>
<path style="fill:url(#SVGID_00000145036705480827374180000009998618488574142639_);" d="M560.6,277.02
	c13.78,15.55,53.04,3.26,87.69-27.45c34.65-30.71,51.57-68.21,37.79-83.75c-13.78-15.55-53.04-3.26-87.69,27.45
	S546.82,261.47,560.6,277.02z"/>
<linearGradient id="SVGID_00000165955593678549711110000010583050168734784903_" gradientUnits="userSpaceOnUse" x1="385.5926" y1="522.9817" x2="385.5926" y2="476.003" gradientTransform="matrix(0.9232 0.3842 -0.3842 0.9232 221.9823 -111.5381)">
	<stop  offset="0" style="stop-color:#FFFFFF"/>
	<stop  offset="0.0488" style="stop-color:#FAEDF4;stop-opacity:0.9426"/>
	<stop  offset="0.1461" style="stop-color:#EFC0D6;stop-opacity:0.828"/>
	<stop  offset="0.2829" style="stop-color:#DC76A6;stop-opacity:0.6668"/>
	<stop  offset="0.4246" style="stop-color:#C62370;stop-opacity:0.5"/>
	<stop  offset="0.4836" style="stop-color:#BF2261;stop-opacity:0.4897"/>
	<stop  offset="0.5686" style="stop-color:#B6204F;stop-opacity:0.475"/>
	<stop  offset="0.6547" style="stop-color:#AF1F40;stop-opacity:0.46"/>
	<stop  offset="0.7408" style="stop-color:#AA1E35;stop-opacity:0.445"/>
	<stop  offset="0.827" style="stop-color:#A61D2C;stop-opacity:0.4301"/>
	<stop  offset="0.9133" style="stop-color:#A31D28;stop-opacity:0.4151"/>
	<stop  offset="1" style="stop-color:#A21C26;stop-opacity:0.4"/>
</linearGradient>
<path style="fill:url(#SVGID_00000165955593678549711110000010583050168734784903_);" d="M418.12,511.11
	c-4.98,11.98-23.38,15.71-41.08,8.35s-28.02-23.05-23.03-35.03c4.98-11.98,23.38-15.71,41.08-8.35S423.11,499.13,418.12,511.11z"/>
<linearGradient id="SVGID_00000099639710892386314260000002917142665407164348_" gradientUnits="userSpaceOnUse" x1="383.8318" y1="465.8342" x2="383.8318" y2="436.2043" gradientTransform="matrix(0.9232 0.3842 -0.3842 0.9232 221.9823 -111.5381)">
	<stop  offset="0" style="stop-color:#FFFFFF"/>
	<stop  offset="0.0488" style="stop-color:#FAEDF4;stop-opacity:0.9426"/>
	<stop  offset="0.1461" style="stop-color:#EFC0D6;stop-opacity:0.828"/>
	<stop  offset="0.2829" style="stop-color:#DC76A6;stop-opacity:0.6668"/>
	<stop  offset="0.4246" style="stop-color:#C62370;stop-opacity:0.5"/>
	<stop  offset="0.4836" style="stop-color:#BF2261;stop-opacity:0.4897"/>
	<stop  offset="0.5686" style="stop-color:#B6204F;stop-opacity:0.475"/>
	<stop  offset="0.6547" style="stop-color:#AF1F40;stop-opacity:0.46"/>
	<stop  offset="0.7408" style="stop-color:#AA1E35;stop-opacity:0.445"/>
	<stop  offset="0.827" style="stop-color:#A61D2C;stop-opacity:0.4301"/>
	<stop  offset="0.9133" style="stop-color:#A31D28;stop-opacity:0.4151"/>
	<stop  offset="1" style="stop-color:#A21C26;stop-opacity:0.4"/>
</linearGradient>
<path style="fill:url(#SVGID_00000099639710892386314260000002917142665407164348_);" d="M423.28,460.75
	c-3.14,7.55-14.74,9.91-25.91,5.26c-11.17-4.65-17.67-14.54-14.53-22.09s14.74-9.91,25.91-5.26
	C419.92,443.31,426.43,453.2,423.28,460.75z"/>
<linearGradient id="SVGID_00000128445399901699224300000016543757225875999122_" gradientUnits="userSpaceOnUse" x1="247.8748" y1="735.3046" x2="341.994" y2="680.9648">
	<stop  offset="0" style="stop-color:#C62370;stop-opacity:0.2"/>
	<stop  offset="0.1119" style="stop-color:#C4226C;stop-opacity:0.2895"/>
	<stop  offset="0.3028" style="stop-color:#BF2261;stop-opacity:0.4423"/>
	<stop  offset="0.5498" style="stop-color:#B6204E;stop-opacity:0.6398"/>
	<stop  offset="0.84" style="stop-color:#AA1E35;stop-opacity:0.872"/>
	<stop  offset="1" style="stop-color:#A21C26"/>
</linearGradient>
<polygon style="fill:url(#SVGID_00000128445399901699224300000016543757225875999122_);" points="282.99,649.53 338.05,674.13 
	333.36,751.45 226.76,698.73 "/>
</svg>
