<?xml version="1.0" encoding="utf-8"?>
<!-- Generator: Adobe Illustrator 26.2.1, SVG Export Plug-In . SVG Version: 6.00 Build 0)  -->
<svg version="1.1" xmlns="http://www.w3.org/2000/svg" xmlns:xlink="http://www.w3.org/1999/xlink" x="0px" y="0px"
	 viewBox="0 0 1980 1080" style="enable-background:new 0 0 1980 1080;" xml:space="preserve">
<style type="text/css">
	.st0{fill:url(#SVGID_1_);stroke:#FFFFFF;stroke-width:1.0241;stroke-miterlimit:10;}
	
		.st1{fill:url(#SVGID_00000176027152996397628990000018354716118454142607_);stroke:#FFFFFF;stroke-width:0.9512;stroke-miterlimit:10;}
	.st2{fill:url(#SVGID_00000003074513935705749520000009297911809101099146_);}
	.st3{fill:#8D88BE;stroke:#FFFFFF;stroke-width:1.1373;stroke-miterlimit:10;}
	.st4{fill:#070809;}
	
		.st5{fill:url(#SVGID_00000018958545742930810290000014812594575720194997_);stroke:url(#SVGID_00000036968362853983492260000015186930975034553764_);stroke-miterlimit:10;}
	
		.st6{fill:none;stroke:url(#SVGID_00000161606400867501621420000010833777163013699762_);stroke-width:7.3918;stroke-miterlimit:10;}
	
		.st7{fill:url(#SVGID_00000098220815111480391460000012382559834438937762_);stroke:url(#SVGID_00000114066301816826315520000015906762782351411863_);stroke-miterlimit:10;}
	.st8{fill:#FFFFFF;}
	.st9{fill:#E4A73C;}
	.st10{fill:#C83C3D;}
	.st11{opacity:0.69;fill:#C83C3D;}
	.st12{opacity:0.6;fill:#C83C3D;}
	.st13{fill:#8DADAE;stroke:#FFFFFF;stroke-width:0.75;stroke-miterlimit:10;}
	.st14{fill:#5291A0;stroke:#FFFFFF;stroke-width:0.5861;stroke-miterlimit:10;}
	.st15{fill:#8DADAE;stroke:#FFFFFF;stroke-width:0.5861;stroke-miterlimit:10;}
	.st16{fill:none;stroke:#8D88BE;stroke-width:1.1373;stroke-miterlimit:10;}
	.st17{fill:none;stroke:#4F88BF;stroke-width:2;stroke-miterlimit:10;}
	.st18{opacity:0.68;fill:none;stroke:#4F88BF;stroke-width:2;stroke-miterlimit:10;}
	.st19{opacity:0.36;fill:#7A6AAA;}
	.st20{opacity:0.61;fill:#4F6AAB;}
	.st21{opacity:0.36;fill:url(#SVGID_00000163040800146393204410000001121492088431072385_);}
	.st22{fill:url(#SVGID_00000107588126513377711290000013071840307044545408_);}
	.st23{fill:url(#SVGID_00000176762657368615629790000006123804316633485486_);}
	.st24{opacity:0.31;fill:#80217E;}
</style>
<g id="Capa_1">
	<linearGradient id="SVGID_1_" gradientUnits="userSpaceOnUse" x1="971" y1="255.2128" x2="971" y2="-5.2128">
		<stop  offset="0" style="stop-color:#FFFFFF"/>
		<stop  offset="0.1482" style="stop-color:#E7E6F0"/>
		<stop  offset="0.4645" style="stop-color:#A8A5C9"/>
		<stop  offset="0.9202" style="stop-color:#443E8B"/>
		<stop  offset="1" style="stop-color:#322B80"/>
	</linearGradient>
	<polygon class="st0" points="-53.09,-0.56 291.45,252.11 1693.42,255.21 1995.09,-5.21 	"/>
	
		<linearGradient id="SVGID_00000129205352541879553720000000358646839300178569_" gradientUnits="userSpaceOnUse" x1="987.8511" y1="871.0425" x2="987.8511" y2="1108.4894">
		<stop  offset="0" style="stop-color:#E7B142;stop-opacity:0.4"/>
		<stop  offset="0.1838" style="stop-color:#DE9D4A;stop-opacity:0.5108"/>
		<stop  offset="0.5758" style="stop-color:#CA6854;stop-opacity:0.7471"/>
		<stop  offset="0.9955" style="stop-color:#B71351"/>
	</linearGradient>
	
		<path style="fill:url(#SVGID_00000129205352541879553720000000358646839300178569_);stroke:#FFFFFF;stroke-width:0.9512;stroke-miterlimit:10;" d="
		M-36.23,1103.89c125.39-76.69,250.78-153.39,376.17-230.08l1352.68-2.77c106.44,79.15,212.88,158.3,319.32,237.45
		C1329.21,1106.96,646.49,1105.43-36.23,1103.89z"/>
	
		<linearGradient id="SVGID_00000008142485589177143060000017930755232981900719_" gradientUnits="userSpaceOnUse" x1="-59.2128" y1="532.4893" x2="354.4043" y2="532.4893">
		<stop  offset="0" style="stop-color:#322B80"/>
		<stop  offset="0.4323" style="stop-color:#2F2A71;stop-opacity:0.7395"/>
		<stop  offset="0.9955" style="stop-color:#2C285B;stop-opacity:0.4"/>
	</linearGradient>
	<path style="fill:url(#SVGID_00000008142485589177143060000017930755232981900719_);" d="M-57.62-55.77
		c133.7,101.74,267.4,203.48,401.1,305.22c3.64,211.57,7.28,423.14,10.93,634.71l-413.62,236.59
		c2.65-380.94,5.3-761.87,7.95-1142.81"/>
	<rect x="331.63" y="232.74" class="st3" width="1375.46" height="650.91"/>
	<ellipse class="st4" cx="165.21" cy="557.77" rx="75.83" ry="239.74"/>
	
		<linearGradient id="SVGID_00000093174001652304021310000010284645278799739567_" gradientUnits="userSpaceOnUse" x1="691.9415" y1="603.9787" x2="1338.3564" y2="603.9787">
		<stop  offset="5.327789e-09" style="stop-color:#322B80"/>
		<stop  offset="1" style="stop-color:#80217E"/>
	</linearGradient>
	
		<linearGradient id="SVGID_00000061462497061678613360000010795673448855730059_" gradientUnits="userSpaceOnUse" x1="691.3641" y1="603.9787" x2="1338.9337" y2="603.9787">
		<stop  offset="5.327789e-09" style="stop-color:#322B80"/>
		<stop  offset="1" style="stop-color:#80217E;stop-opacity:0.4"/>
	</linearGradient>
	
		<polygon style="fill:url(#SVGID_00000093174001652304021310000010284645278799739567_);stroke:url(#SVGID_00000061462497061678613360000010795673448855730059_);stroke-miterlimit:10;" points="
		1176,884.32 852.79,883.45 691.94,603.11 854.3,323.64 1177.51,324.51 1338.36,604.85 	"/>
	
		<linearGradient id="SVGID_00000088845397171438370280000014415715733939010710_" gradientUnits="userSpaceOnUse" x1="669.2563" y1="590.4684" x2="1360.3854" y2="590.4684">
		<stop  offset="5.327789e-09" style="stop-color:#322B80"/>
		<stop  offset="1" style="stop-color:#80217E;stop-opacity:0.4"/>
	</linearGradient>
	
		<polygon style="fill:none;stroke:url(#SVGID_00000088845397171438370280000014415715733939010710_);stroke-width:7.3918;stroke-miterlimit:10;" points="
		1184.67,886.5 843.38,885.58 673.52,589.55 844.97,294.44 1186.26,295.36 1356.12,591.39 	"/>
	
		<linearGradient id="SVGID_00000135692391150588004790000001606098042553253050_" gradientUnits="userSpaceOnUse" x1="1696.3617" y1="528.0958" x2="2125.2979" y2="528.0958">
		<stop  offset="5.327789e-09" style="stop-color:#322B80"/>
		<stop  offset="1" style="stop-color:#80217E"/>
	</linearGradient>
	
		<linearGradient id="SVGID_00000054246978414328246310000003887319008717793196_" gradientUnits="userSpaceOnUse" x1="1695.8606" y1="528.4107" x2="2125.8052" y2="528.4107">
		<stop  offset="5.327789e-09" style="stop-color:#322B80"/>
		<stop  offset="1" style="stop-color:#80217E;stop-opacity:0.4"/>
	</linearGradient>
	
		<path style="fill:url(#SVGID_00000135692391150588004790000001606098042553253050_);stroke:url(#SVGID_00000054246978414328246310000003887319008717793196_);stroke-miterlimit:10;" d="
		M2115.81-101.87c3.16,432.19,6.33,864.37,9.49,1296.56c-142.98-104.9-285.96-209.81-428.94-314.71
		c1.02-216.66,2.04-433.32,3.06-649.98C1828.62,107.16,1957.81-15.66,2087-138.49"/>
	<ellipse class="st4" cx="1815.09" cy="444.4" rx="75.83" ry="239.74"/>
	<ellipse class="st4" cx="1900.87" cy="808.32" rx="42.13" ry="133.19"/>
	<g>
		<g>
			<path class="st8" d="M173.64,397.12c3.22,0,3.22-5,0-5C170.42,392.12,170.42,397.12,173.64,397.12L173.64,397.12z"/>
		</g>
	</g>
	<g>
		<g>
			<path class="st8" d="M227.26,562.56c3.22,0,3.22-5,0-5C224.04,557.56,224.03,562.56,227.26,562.56L227.26,562.56z"/>
		</g>
	</g>
	<g>
		<g>
			<path class="st8" d="M176.7,645.29c3.22,0,3.22-5,0-5C173.48,640.29,173.48,645.29,176.7,645.29L176.7,645.29z"/>
		</g>
	</g>
	<g>
		<g>
			<path class="st8" d="M179.77,576.35c3.22,0,3.22-5,0-5C176.55,571.35,176.54,576.35,179.77,576.35L179.77,576.35z"/>
		</g>
	</g>
	<g>
		<g>
			<path class="st8" d="M1789.81,283.76c3.22,0,3.22-5,0-5C1786.59,278.76,1786.59,283.76,1789.81,283.76L1789.81,283.76z"/>
		</g>
	</g>
	<g>
		<g>
			<path class="st8" d="M1806.66,299.07c3.22,0,3.22-5,0-5C1803.44,294.07,1803.44,299.07,1806.66,299.07L1806.66,299.07z"/>
		</g>
	</g>
	<g>
		<g>
			<path class="st8" d="M1782.15,527.33c3.22,0,3.22-5,0-5C1778.93,522.33,1778.93,527.33,1782.15,527.33L1782.15,527.33z"/>
		</g>
	</g>
	<g>
		<g>
			<path class="st8" d="M1841.89,522.73c3.22,0,3.22-5,0-5C1838.68,517.73,1838.67,522.73,1841.89,522.73L1841.89,522.73z"/>
		</g>
	</g>
	<g>
		<g>
			<path class="st8" d="M1828.11,426.22c3.22,0,3.22-5,0-5C1824.89,421.22,1824.88,426.22,1828.11,426.22L1828.11,426.22z"/>
		</g>
	</g>
	<g>
		<g>
			<path class="st8" d="M1789.81,610.05c3.22,0,3.22-5,0-5C1786.59,605.05,1786.59,610.05,1789.81,610.05L1789.81,610.05z"/>
		</g>
	</g>
	<g>
		<g>
			<path class="st8" d="M1900.11,772.44c3.22,0,3.22-5,0-5C1896.89,767.44,1896.88,772.44,1900.11,772.44L1900.11,772.44z"/>
		</g>
	</g>
	<g>
		<g>
			<path class="st8" d="M1906.23,744.86c3.22,0,3.22-5,0-5C1903.02,739.86,1903.01,744.86,1906.23,744.86L1906.23,744.86z"/>
		</g>
	</g>
	<g>
		<g>
			<path class="st8" d="M1920.02,845.97c3.22,0,3.22-5,0-5C1916.8,840.97,1916.8,845.97,1920.02,845.97L1920.02,845.97z"/>
		</g>
	</g>
	<g>
		<g>
			<path class="st8" d="M111.55,425.26c0,0.51,0,1.02,0,1.53c-0.05,1.38,0.24,2.66,0.86,3.85c0.4,1.24,1.09,2.31,2.07,3.22
				c0.91,0.98,1.98,1.66,3.22,2.07c1.19,0.63,2.48,0.91,3.85,0.86c0.89-0.12,1.77-0.24,2.66-0.36c1.69-0.48,3.16-1.33,4.41-2.57
				c0.52-0.67,1.04-1.35,1.56-2.02c0.9-1.56,1.36-3.24,1.37-5.05c0-0.51,0-1.02,0-1.53c0.05-1.38-0.24-2.66-0.86-3.85
				c-0.4-1.24-1.09-2.31-2.07-3.22c-0.91-0.98-1.98-1.66-3.22-2.07c-1.19-0.63-2.48-0.91-3.85-0.86c-0.89,0.12-1.77,0.24-2.66,0.36
				c-1.69,0.48-3.16,1.33-4.41,2.57c-0.52,0.67-1.04,1.35-1.56,2.02C112.01,421.77,111.56,423.45,111.55,425.26L111.55,425.26z"/>
		</g>
	</g>
	<g>
		<g>
			<path class="st8" d="M1814.32,651.26c5.23,0,10.24-4.6,10-10c-0.24-5.42-4.39-10-10-10c-5.23,0-10.24,4.6-10,10
				C1804.56,646.67,1808.71,651.26,1814.32,651.26L1814.32,651.26z"/>
		</g>
	</g>
	<g>
		<g>
			<path class="st8" d="M1863.34,421.47c5.23,0,10.24-4.6,10-10c-0.24-5.42-4.39-10-10-10c-5.23,0-10.24,4.6-10,10
				C1853.58,416.89,1857.73,421.47,1863.34,421.47L1863.34,421.47z"/>
		</g>
	</g>
	<g>
		<g>
			<path class="st8" d="M211.94,489.68c5.13,0,10.52-2.23,14.14-5.86c1.95-1.81,3.33-3.96,4.14-6.44c1.25-2.38,1.83-4.95,1.72-7.71
				c-0.23-5.17-1.93-10.54-5.86-14.14c-3.91-3.59-8.72-5.86-14.14-5.86c-5.13,0-10.52,2.23-14.14,5.86
				c-1.95,1.81-3.33,3.96-4.14,6.44c-1.25,2.38-1.83,4.95-1.72,7.71c0.23,5.17,1.93,10.54,5.86,14.14
				C201.71,487.42,206.52,489.68,211.94,489.68L211.94,489.68z"/>
		</g>
	</g>
	<g>
		<g>
			<path class="st9" d="M132.28,401.09c2.41,0,2.42-3.75,0-3.75C129.86,397.34,129.86,401.09,132.28,401.09L132.28,401.09z"/>
		</g>
	</g>
	<g>
		<g>
			<path class="st9" d="M135.34,580.32c2.41,0,2.42-3.75,0-3.75C132.93,576.57,132.92,580.32,135.34,580.32L135.34,580.32z"/>
		</g>
	</g>
	<g>
		<g>
			<path class="st9" d="M187.43,466.96c2.41,0,2.42-3.75,0-3.75C185.01,463.21,185.01,466.96,187.43,466.96L187.43,466.96z"/>
		</g>
	</g>
	<g>
		<g>
			<path class="st9" d="M146.06,528.24c2.41,0,2.42-3.75,0-3.75C143.65,524.49,143.65,528.24,146.06,528.24L146.06,528.24z"/>
		</g>
	</g>
	<g>
		<g>
			<path class="st9" d="M195.09,713.6c2.41,0,2.42-3.75,0-3.75C192.67,709.85,192.67,713.6,195.09,713.6L195.09,713.6z"/>
		</g>
	</g>
	<g>
		<g>
			<path class="st9" d="M152.19,753.43c2.41,0,2.42-3.75,0-3.75C149.78,749.68,149.77,753.43,152.19,753.43L152.19,753.43z"/>
		</g>
	</g>
	<g>
		<g>
			<path class="st9" d="M153.72,692.15c2.41,0,2.42-3.75,0-3.75C151.31,688.4,151.31,692.15,153.72,692.15L153.72,692.15z"/>
		</g>
	</g>
	<g>
		<g>
			<path class="st9" d="M1765.3,460.83c2.41,0,2.42-3.75,0-3.75C1762.88,457.08,1762.88,460.83,1765.3,460.83L1765.3,460.83z"/>
		</g>
	</g>
	<g>
		<g>
			<path class="st9" d="M1792.87,394.96c2.41,0,2.42-3.75,0-3.75C1790.46,391.21,1790.46,394.96,1792.87,394.96L1792.87,394.96z"/>
		</g>
	</g>
	<g>
		<g>
			<path class="st9" d="M1806.66,466.96c2.41,0,2.42-3.75,0-3.75C1804.25,463.21,1804.24,466.96,1806.66,466.96L1806.66,466.96z"/>
		</g>
	</g>
	<g>
		<g>
			<path class="st9" d="M1854.15,344.41c2.41,0,2.42-3.75,0-3.75C1851.74,340.66,1851.73,344.41,1854.15,344.41L1854.15,344.41z"/>
		</g>
	</g>
	<g>
		<g>
			<path class="st9" d="M1831.17,255.56c2.41,0,2.42-3.75,0-3.75C1828.76,251.81,1828.75,255.56,1831.17,255.56L1831.17,255.56z"/>
		</g>
	</g>
	<g>
		<g>
			<path class="st9" d="M1811.26,376.58c2.41,0,2.42-3.75,0-3.75C1808.84,372.83,1808.84,376.58,1811.26,376.58L1811.26,376.58z"/>
		</g>
	</g>
	<g>
		<g>
			<path class="st9" d="M1844.96,623.22c2.41,0,2.42-3.75,0-3.75C1842.54,619.47,1842.54,623.22,1844.96,623.22L1844.96,623.22z"/>
		</g>
	</g>
	<g>
		<g>
			<path class="st9" d="M1855.68,560.41c2.41,0,2.42-3.75,0-3.75C1853.27,556.66,1853.26,560.41,1855.68,560.41L1855.68,560.41z"/>
		</g>
	</g>
	<g>
		<g>
			<path class="st9" d="M1808.19,574.19c2.41,0,2.42-3.75,0-3.75C1805.78,570.44,1805.77,574.19,1808.19,574.19L1808.19,574.19z"/>
		</g>
	</g>
	<g>
		<g>
			<path class="st9" d="M1886.32,853c2.41,0,2.42-3.75,0-3.75C1883.91,849.25,1883.9,853,1886.32,853L1886.32,853z"/>
		</g>
	</g>
	<g>
		<g>
			<path class="st9" d="M1884.79,822.36c2.41,0,2.42-3.75,0-3.75C1882.37,818.61,1882.37,822.36,1884.79,822.36L1884.79,822.36z"/>
		</g>
	</g>
	<g>
		<g>
			<path class="st9" d="M1907.77,903.56c2.41,0,2.42-3.75,0-3.75C1905.35,899.81,1905.35,903.56,1907.77,903.56L1907.77,903.56z"/>
		</g>
	</g>
	<g>
		<g>
			<path class="st10" d="M118.49,470.09c2.62,0,5.12-2.3,5-5c-0.12-2.71-2.2-5-5-5c-2.62,0-5.12,2.3-5,5
				C113.61,467.79,115.69,470.09,118.49,470.09L118.49,470.09z"/>
		</g>
	</g>
	<g>
		<g>
			<path class="st10" d="M132.28,664.64c2.62,0,5.12-2.3,5-5c-0.12-2.71-2.2-5-5-5c-2.62,0-5.12,2.3-5,5
				C127.4,662.35,129.47,664.64,132.28,664.64L132.28,664.64z"/>
		</g>
	</g>
	<g>
		<g>
			<path class="st10" d="M1780.62,376.64c2.62,0,5.12-2.3,5-5c-0.12-2.71-2.2-5-5-5c-2.62,0-5.12,2.3-5,5
				C1775.74,374.35,1777.81,376.64,1780.62,376.64L1780.62,376.64z"/>
		</g>
	</g>
	<g>
		<g>
			<path class="st10" d="M1874.06,502.26c2.62,0,5.12-2.3,5-5c-0.12-2.71-2.2-5-5-5c-2.62,0-5.12,2.3-5,5
				C1869.19,499.96,1871.26,502.26,1874.06,502.26L1874.06,502.26z"/>
		</g>
	</g>
	<g>
		<g>
			<path class="st10" d="M1881.72,791.79c2.62,0,5.12-2.3,5-5c-0.12-2.71-2.2-5-5-5c-2.62,0-5.12,2.3-5,5
				C1876.84,789.5,1878.92,791.79,1881.72,791.79L1881.72,791.79z"/>
		</g>
	</g>
	<g>
		<g>
			<path class="st10" d="M1920.02,817.83c2.62,0,5.12-2.3,5-5c-0.12-2.71-2.2-5-5-5c-2.62,0-5.12,2.3-5,5
				C1915.14,815.54,1917.22,817.83,1920.02,817.83L1920.02,817.83z"/>
		</g>
	</g>
	<rect x="915.09" y="324.15" class="st11" width="196.09" height="76.6"/>
	<rect x="1003.17" y="325.68" class="st12" width="22.21" height="558.38"/>
	<rect x="511.68" y="429.34" class="st13" width="121.53" height="311.49"/>
	<rect x="366.66" y="429.34" class="st14" width="121.53" height="82.72"/>
	<rect x="1374.66" y="570.28" class="st15" width="121.53" height="82.72"/>
	<g>
		<g>
			<path class="st8" d="M173.13,430.82c3.22,0,3.22-5,0-5C169.91,425.82,169.91,430.82,173.13,430.82L173.13,430.82z"/>
		</g>
	</g>
	<rect x="536.19" y="449.77" class="st8" width="71.49" height="1.53"/>
	<rect x="535.43" y="529.43" class="st8" width="51.32" height="1.53"/>
	<rect x="537.47" y="520.23" class="st8" width="71.49" height="1.53"/>
	<rect x="538.49" y="511.04" class="st8" width="62.04" height="3.06"/>
	<rect x="538.49" y="503.89" class="st8" width="71.49" height="1.53"/>
	<rect x="536.96" y="471.21" class="st8" width="71.49" height="1.53"/>
	<rect x="537.47" y="461" class="st8" width="71.49" height="1.53"/>
	<rect x="-536.91" y="466.87" class="st8" width="71.49" height="1.53"/>
	<rect x="-537.68" y="546.53" class="st8" width="51.32" height="1.53"/>
	<rect x="-535.64" y="537.34" class="st8" width="71.49" height="1.53"/>
	<rect x="-534.62" y="528.15" class="st8" width="62.04" height="3.06"/>
	<rect x="-534.62" y="521" class="st8" width="71.49" height="1.53"/>
	<rect x="-536.15" y="488.32" class="st8" width="71.49" height="1.53"/>
	<rect x="-535.64" y="478.11" class="st8" width="71.49" height="1.53"/>
	<rect x="536.96" y="558.53" class="st8" width="71.49" height="1.53"/>
	<rect x="536.19" y="638.19" class="st8" width="51.32" height="1.53"/>
	<rect x="538.23" y="629" class="st8" width="71.49" height="1.53"/>
	<rect x="539.26" y="619.81" class="st8" width="62.04" height="3.06"/>
	<rect x="539.26" y="612.66" class="st8" width="71.49" height="1.53"/>
	<rect x="537.72" y="581.51" class="st8" width="71.74" height="20.68"/>
	<rect x="538.23" y="569.77" class="st8" width="71.49" height="1.53"/>
	<rect x="1396.62" y="613.94" class="st8" width="51.32" height="1.53"/>
	<rect x="1396.96" y="605.43" class="st8" width="71.49" height="1.53"/>
	<rect x="1397.3" y="595.89" class="st8" width="62.04" height="3.06"/>
	<rect x="1395.94" y="588.4" class="st8" width="71.49" height="1.53"/>
	<polyline class="st16" points="271.68,189.34 579.6,118.87 584.19,-0.62 	"/>
	<polyline class="st17" points="1272.02,0.91 1405.3,232.23 1406.83,388.49 1607.51,390.02 1599.85,878.7 	"/>
	<polyline class="st18" points="135.34,95.89 136.87,261.34 332.96,394.62 781.81,397.68 	"/>
	<rect x="978.79" y="352.49" class="st8" width="71.49" height="1.53"/>
	<rect x="979.55" y="373.94" class="st8" width="71.49" height="1.53"/>
	<rect x="980.06" y="363.72" class="st8" width="71.49" height="1.53"/>
	
		<rect x="-326.82" y="886.15" transform="matrix(0.8322 0.5544 -0.5544 0.8322 583.1 103.0562)" class="st19" width="896.17" height="257.74"/>
	
		<rect x="-392.92" y="916.3" transform="matrix(0.8322 0.5544 -0.5544 0.8322 588.7292 144.7596)" class="st20" width="896.17" height="257.74"/>
	
		<linearGradient id="SVGID_00000179616414254659761470000006956027312543121800_" gradientUnits="userSpaceOnUse" x1="2199.5186" y1="462.3227" x2="1342.4518" y2="-394.7441">
		<stop  offset="5.327789e-09" style="stop-color:#322B80"/>
		<stop  offset="1" style="stop-color:#80217E;stop-opacity:0.4"/>
	</linearGradient>
	<polygon style="opacity:0.36;fill:url(#SVGID_00000179616414254659761470000006956027312543121800_);" points="2088.86,572.98 
		1150.95,-51.84 1453.11,-505.41 2391.02,119.42 	"/>
	
		<linearGradient id="SVGID_00000030480339608999872680000010005967401453730712_" gradientUnits="userSpaceOnUse" x1="482.8647" y1="364.824" x2="52.9073" y2="-65.1335" gradientTransform="matrix(1.1455 -0.5446 0.2636 0.5545 -84.7867 163.6115)">
		<stop  offset="5.327789e-09" style="stop-color:#322B80"/>
		<stop  offset="1" style="stop-color:#80217E;stop-opacity:0.4"/>
	</linearGradient>
	<polygon style="fill:url(#SVGID_00000030480339608999872680000010005967401453730712_);" points="677.52,-37.93 -108.61,335.83 
		-154.38,239.55 631.75,-134.2 	"/>
	
		<linearGradient id="SVGID_00000103952249242421594890000018127858359431861682_" gradientUnits="userSpaceOnUse" x1="510.6633" y1="592.2974" x2="80.7058" y2="162.3399" gradientTransform="matrix(1.1849 -0.5633 0.0943 0.1983 -33.721 266.1921)">
		<stop  offset="5.327789e-09" style="stop-color:#322B80"/>
		<stop  offset="1" style="stop-color:#80217E;stop-opacity:0.4"/>
	</linearGradient>
	<polygon style="fill:url(#SVGID_00000103952249242421594890000018127858359431861682_);" points="767,-1.64 -46.2,384.98 
		-62.57,350.55 750.63,-36.07 	"/>
	
		<rect x="1311.18" y="940.81" transform="matrix(0.9031 -0.4294 0.4294 0.9031 -257.6644 846.1732)" class="st24" width="870.46" height="106.6"/>
	
		<rect x="1030.12" y="865.74" transform="matrix(0.9031 -0.4294 0.4294 0.9031 -229.5036 769.1898)" class="st24" width="1119.52" height="54.93"/>
</g>
<g id="Capa_2">
</g>
</svg>
