<?xml version="1.0" encoding="utf-8"?>
<!-- Generator: Adobe Illustrator 26.2.1, SVG Export Plug-In . SVG Version: 6.00 Build 0)  -->
<svg version="1.1" xmlns="http://www.w3.org/2000/svg" xmlns:xlink="http://www.w3.org/1999/xlink" x="0px" y="0px"
	 viewBox="0 0 1980 1080" style="enable-background:new 0 0 1980 1080;" xml:space="preserve">
<style type="text/css">
	.st0{fill:#2F3974;}
	.st1{fill:#232820;}
	.st2{fill:#FFFFFF;}
	.st3{fill:#ECC062;}
	.st4{fill:#AD0D6D;}
	.st5{opacity:0.42;fill:#23231A;}
	.st6{fill:url(#SVGID_1_);stroke:#FFFFFF;stroke-width:1.0241;stroke-miterlimit:10;}
	
		.st7{fill:url(#SVGID_00000160869273225471887450000015004151097001458833_);stroke:#FFFFFF;stroke-width:0.9512;stroke-miterlimit:10;}
	.st8{fill:url(#SVGID_00000040539933682151730040000001265533878149922713_);}
	.st9{fill:#8D88BE;stroke:#FFFFFF;stroke-width:1.1373;stroke-miterlimit:10;}
	.st10{fill:#070809;}
	
		.st11{fill:url(#SVGID_00000177473825376226332460000003242825365801930936_);stroke:url(#SVGID_00000004514261320110448350000017624614750683608968_);stroke-miterlimit:10;}
	
		.st12{fill:none;stroke:url(#SVGID_00000026151616112220809030000015842943411211090313_);stroke-width:7.3918;stroke-miterlimit:10;}
	
		.st13{fill:url(#SVGID_00000129172033635262432950000018034555622346767295_);stroke:url(#SVGID_00000007425748041197965280000013531430010681416102_);stroke-miterlimit:10;}
	.st14{fill:#E4A73C;}
	.st15{fill:#C83C3D;}
	.st16{opacity:0.69;fill:#C83C3D;}
	.st17{opacity:0.6;fill:#C83C3D;}
	.st18{fill:#8DADAE;stroke:#FFFFFF;stroke-width:0.75;stroke-miterlimit:10;}
	.st19{fill:#5291A0;stroke:#FFFFFF;stroke-width:0.5861;stroke-miterlimit:10;}
	.st20{fill:#8DADAE;stroke:#FFFFFF;stroke-width:0.5861;stroke-miterlimit:10;}
	.st21{fill:none;stroke:#8D88BE;stroke-width:1.1373;stroke-miterlimit:10;}
	.st22{fill:none;stroke:#4F88BF;stroke-width:2;stroke-miterlimit:10;}
	.st23{opacity:0.68;fill:none;stroke:#4F88BF;stroke-width:2;stroke-miterlimit:10;}
	.st24{opacity:0.36;fill:#7A6AAA;}
	.st25{opacity:0.61;fill:#4F6AAB;}
	.st26{opacity:0.36;fill:url(#SVGID_00000081644159601895604240000006357646232852142212_);}
	.st27{fill:url(#SVGID_00000128482047900976418260000007549328677264234669_);}
	.st28{fill:url(#SVGID_00000013189770752786135000000015071761796600112046_);}
	.st29{opacity:0.31;fill:#80217E;}
	.st30{fill:#AD2925;}
	.st31{fill:#B7181C;}
	.st32{opacity:0.41;fill:#8A2925;}
	.st33{opacity:0.24;fill:#8A2925;}
	.st34{opacity:0.24;fill:#612824;}
	.st35{fill:#632925;}
	.st36{fill:#362925;}
	.st37{fill:#4A2925;}
	.st38{fill:url(#SVGID_00000060739305599771353660000018371408770992850839_);}
	.st39{opacity:0.62;fill:#4A2925;}
	.st40{opacity:0.65;fill:#4A2925;}
	.st41{opacity:0.67;fill:#4A2925;}
	.st42{opacity:0.78;fill:#4A2925;}
</style>
<g id="Capa_3">
	<rect x="-116.83" y="-71.98" class="st0" width="2320.34" height="896.68"/>
	<g>
		<g>
			<path class="st1" d="M551.09,183.8c3.22,0,3.22-5,0-5C547.87,178.8,547.86,183.8,551.09,183.8L551.09,183.8z"/>
		</g>
	</g>
	<g>
		<g>
			<path class="st2" d="M1445.72,149.07c3.22,0,3.22-5,0-5C1442.51,144.07,1442.5,149.07,1445.72,149.07L1445.72,149.07z"/>
		</g>
	</g>
	<g>
		<g>
			<path class="st2" d="M1525.38,349.24c3.22,0,3.22-5,0-5C1522.17,344.24,1522.16,349.24,1525.38,349.24L1525.38,349.24z"/>
		</g>
	</g>
	<g>
		<g>
			<path class="st2" d="M984.11,500.39c3.22,0,3.22-5,0-5C980.89,495.39,980.88,500.39,984.11,500.39L984.11,500.39z"/>
		</g>
	</g>
	<g>
		<g>
			<path class="st2" d="M816.62,267.54c3.22,0,3.22-5,0-5C813.4,262.54,813.4,267.54,816.62,267.54L816.62,267.54z"/>
		</g>
	</g>
	<g>
		<g>
			<path class="st2" d="M614.41,347.2c3.22,0,3.22-5,0-5C611.19,342.2,611.18,347.2,614.41,347.2L614.41,347.2z"/>
		</g>
	</g>
	<g>
		<g>
			<path class="st2" d="M473.47,124.56c3.22,0,3.22-5,0-5C470.25,119.56,470.25,124.56,473.47,124.56L473.47,124.56z"/>
		</g>
	</g>
	<g>
		<g>
			<path class="st2" d="M189.55,369.67c3.22,0,3.22-5,0-5C186.34,364.67,186.33,369.67,189.55,369.67L189.55,369.67z"/>
		</g>
	</g>
	<g>
		<g>
			<path class="st2" d="M207.94,118.43c3.22,0,3.22-5,0-5C204.72,113.43,204.71,118.43,207.94,118.43L207.94,118.43z"/>
		</g>
	</g>
	<g>
		<g>
			<path class="st2" d="M741.04,486.09c3.22,0,3.22-5,0-5C737.83,481.09,737.82,486.09,741.04,486.09L741.04,486.09z"/>
		</g>
	</g>
	<g>
		<g>
			<path class="st2" d="M892.19,240.99c3.22,0,3.22-5,0-5C888.98,235.99,888.97,240.99,892.19,240.99L892.19,240.99z"/>
		</g>
	</g>
	<g>
		<g>
			<path class="st2" d="M830.92,277.75c3.22,0,3.22-5,0-5C827.7,272.75,827.69,277.75,830.92,277.75L830.92,277.75z"/>
		</g>
	</g>
	<g>
		<g>
			<path class="st2" d="M1088.28,590.26c3.22,0,3.22-5,0-5C1085.06,585.26,1085.06,590.26,1088.28,590.26L1088.28,590.26z"/>
		</g>
	</g>
	<g>
		<g>
			<path class="st2" d="M1043.34,627.03c3.22,0,3.22-5,0-5C1040.12,622.03,1040.12,627.03,1043.34,627.03L1043.34,627.03z"/>
		</g>
	</g>
	<g>
		<g>
			<path class="st2" d="M1619.34,202.18c3.22,0,3.22-5,0-5C1616.12,197.18,1616.12,202.18,1619.34,202.18L1619.34,202.18z"/>
		</g>
	</g>
	<g>
		<g>
			<path class="st2" d="M1660.31,261.74c-0.68-1.36-1.36-2.72-2.04-4.09c-0.27-0.54-0.93-0.99-1.49-1.15
				c-0.6-0.16-1.4-0.09-1.93,0.25c-0.53,0.34-1,0.86-1.15,1.49c-0.03,0.22-0.06,0.44-0.09,0.66c0,0.45,0.12,0.87,0.34,1.26
				c0.68,1.36,1.36,2.72,2.04,4.09c0.27,0.54,0.93,0.99,1.49,1.15c0.6,0.16,1.4,0.09,1.93-0.25c0.53-0.34,1-0.86,1.15-1.49
				c0.03-0.22,0.06-0.44,0.09-0.66C1660.65,262.55,1660.53,262.13,1660.31,261.74L1660.31,261.74z"/>
		</g>
	</g>
	<g>
		<g>
			<path class="st2" d="M1629.55,222.6c3.22,0,3.22-5,0-5C1626.34,217.6,1626.33,222.6,1629.55,222.6L1629.55,222.6z"/>
		</g>
	</g>
	<g>
		<g>
			<path class="st2" d="M1756.19,79.63c3.22,0,3.22-5,0-5C1752.98,74.63,1752.97,79.63,1756.19,79.63L1756.19,79.63z"/>
		</g>
	</g>
	<g>
		<g>
			<path class="st2" d="M1782.75,238.95c3.22,0,3.22-5,0-5C1779.53,233.95,1779.52,238.95,1782.75,238.95L1782.75,238.95z"/>
		</g>
	</g>
	<g>
		<g>
			<path class="st2" d="M1558.06,465.67c3.22,0,3.22-5,0-5C1554.85,460.67,1554.84,465.67,1558.06,465.67L1558.06,465.67z"/>
		</g>
	</g>
	<g>
		<g>
			<path class="st2" d="M273.3,68.29c3.92,0,7.68-3.45,7.5-7.5c-0.18-4.06-3.3-7.5-7.5-7.5c-3.92,0-7.68,3.45-7.5,7.5
				C265.98,64.85,269.09,68.29,273.3,68.29L273.3,68.29z"/>
		</g>
	</g>
	<g>
		<g>
			<path class="st2" d="M324.36,252.12c3.92,0,7.68-3.45,7.5-7.5c-0.18-4.06-3.3-7.5-7.5-7.5c-3.92,0-7.68,3.45-7.5,7.5
				C317.04,248.68,320.16,252.12,324.36,252.12L324.36,252.12z"/>
		</g>
	</g>
	<g>
		<g>
			<path class="st2" d="M792.11,119.35c3.92,0,7.68-3.45,7.5-7.5c-0.18-4.06-3.3-7.5-7.5-7.5c-3.92,0-7.68,3.45-7.5,7.5
				C784.79,115.91,787.9,119.35,792.11,119.35L792.11,119.35z"/>
		</g>
	</g>
	<g>
		<g>
			<path class="st2" d="M859.51,384.88c3.92,0,7.68-3.45,7.5-7.5c-0.18-4.06-3.3-7.5-7.5-7.5c-3.92,0-7.68,3.45-7.5,7.5
				C852.19,381.44,855.31,384.88,859.51,384.88L859.51,384.88z"/>
		</g>
	</g>
	<g>
		<g>
			<path class="st2" d="M706.32,542.16c3.92,0,7.68-3.45,7.5-7.5c-0.18-4.06-3.3-7.5-7.5-7.5c-3.92,0-7.68,3.45-7.5,7.5
				C699,538.72,702.12,542.16,706.32,542.16L706.32,542.16z"/>
		</g>
	</g>
	<g>
		<g>
			<path class="st2" d="M1053.55,98.92c3.92,0,7.68-3.45,7.5-7.5c-0.18-4.06-3.3-7.5-7.5-7.5c-3.92,0-7.68,3.45-7.5,7.5
				C1046.24,95.49,1049.35,98.92,1053.55,98.92L1053.55,98.92z"/>
		</g>
	</g>
	<g>
		<g>
			<path class="st2" d="M1394.66,609.56c3.92,0,7.68-3.45,7.5-7.5c-0.18-4.06-3.3-7.5-7.5-7.5c-3.92,0-7.68,3.45-7.5,7.5
				C1387.34,606.13,1390.46,609.56,1394.66,609.56L1394.66,609.56z"/>
		</g>
	</g>
	<g>
		<g>
			<path class="st2" d="M1304.79,656.54c3.92,0,7.68-3.45,7.5-7.5c-0.18-4.06-3.3-7.5-7.5-7.5c-3.92,0-7.68,3.45-7.5,7.5
				C1297.47,653.1,1300.58,656.54,1304.79,656.54L1304.79,656.54z"/>
		</g>
	</g>
	<g>
		<g>
			<path class="st2" d="M1537.64,113.22c3.92,0,7.68-3.45,7.5-7.5c-0.18-4.06-3.3-7.5-7.5-7.5c-3.92,0-7.68,3.45-7.5,7.5
				C1530.32,109.79,1533.43,113.22,1537.64,113.22L1537.64,113.22z"/>
		</g>
	</g>
	<g>
		<g>
			<path class="st2" d="M1556.02,139.78c3.92,0,7.68-3.45,7.5-7.5c-0.18-4.06-3.3-7.5-7.5-7.5c-3.92,0-7.68,3.45-7.5,7.5
				C1548.7,136.34,1551.82,139.78,1556.02,139.78L1556.02,139.78z"/>
		</g>
	</g>
	<g>
		<g>
			<path class="st2" d="M1621.38,460.46c3.92,0,7.68-3.45,7.5-7.5c-0.18-4.06-3.3-7.5-7.5-7.5c-3.92,0-7.68,3.45-7.5,7.5
				C1614.07,457.02,1617.18,460.46,1621.38,460.46L1621.38,460.46z"/>
		</g>
	</g>
	<g>
		<g>
			<path class="st2" d="M1253.72,333.82c3.92,0,7.68-3.45,7.5-7.5c-0.18-4.06-3.3-7.5-7.5-7.5c-3.92,0-7.68,3.45-7.5,7.5
				C1246.41,330.38,1249.52,333.82,1253.72,333.82L1253.72,333.82z"/>
		</g>
	</g>
	<g>
		<g>
			<path class="st2" d="M1235.34,310.68c3.85,0,7.89-1.67,10.61-4.39c2.6-2.6,4.56-6.87,4.39-10.61c-0.17-3.88-1.45-7.9-4.39-10.61
				c-2.93-2.69-6.54-4.39-10.61-4.39c-3.85,0-7.89,1.67-10.61,4.39c-2.6,2.6-4.56,6.87-4.39,10.61c0.17,3.88,1.45,7.9,4.39,10.61
				C1227.67,308.98,1231.28,310.68,1235.34,310.68L1235.34,310.68z"/>
		</g>
	</g>
	<g>
		<g>
			<path class="st2" d="M1645.89,77.83c3.85,0,7.89-1.67,10.61-4.39c2.6-2.6,4.56-6.87,4.39-10.61c-0.17-3.88-1.45-7.9-4.39-10.61
				c-2.93-2.69-6.54-4.39-10.61-4.39c-3.85,0-7.89,1.67-10.61,4.39c-2.6,2.6-4.56,6.87-4.39,10.61c0.17,3.88,1.45,7.9,4.39,10.61
				C1638.22,76.13,1641.83,77.83,1645.89,77.83L1645.89,77.83z"/>
		</g>
	</g>
	<g>
		<g>
			<path class="st2" d="M1950.24,75.15c6.2,0.23,11.97-1.06,17.34-3.88c5.58-1.81,10.41-4.92,14.48-9.3
				c4.39-4.08,7.49-8.9,9.3-14.48c2.82-5.36,4.11-11.14,3.88-17.34c-0.54-3.99-1.07-7.98-1.61-11.96c-2.14-7.62-6-14.24-11.57-19.86
				c-3.04-2.35-6.07-4.69-9.11-7.04c-7.02-4.07-14.59-6.12-22.71-6.14c-6.2-0.23-11.97,1.06-17.34,3.88
				c-5.58,1.81-10.41,4.92-14.48,9.3c-4.39,4.08-7.49,8.9-9.3,14.48c-2.82,5.36-4.11,11.14-3.88,17.34
				c0.54,3.99,1.07,7.98,1.61,11.96c2.14,7.62,6,14.24,11.57,19.86c3.04,2.35,6.07,4.69,9.11,7.04
				C1934.54,73.07,1942.11,75.12,1950.24,75.15L1950.24,75.15z"/>
		</g>
	</g>
	<g>
		<g>
			<path class="st2" d="M522.49,520.42c6.2,0.23,11.97-1.06,17.34-3.88c5.58-1.81,10.41-4.92,14.48-9.3
				c4.39-4.08,7.49-8.9,9.3-14.48c2.82-5.36,4.11-11.14,3.88-17.34c-0.54-3.99-1.07-7.98-1.61-11.96c-2.14-7.62-6-14.24-11.57-19.86
				c-3.04-2.35-6.07-4.69-9.11-7.04c-7.02-4.07-14.59-6.12-22.71-6.14c-6.2-0.23-11.97,1.06-17.34,3.88
				c-5.58,1.81-10.41,4.92-14.48,9.3c-4.39,4.08-7.49,8.9-9.3,14.48c-2.82,5.36-4.11,11.14-3.88,17.34
				c0.54,3.99,1.07,7.98,1.61,11.96c2.14,7.62,6,14.24,11.57,19.86c3.04,2.35,6.07,4.69,9.11,7.04
				C506.8,518.35,514.37,520.4,522.49,520.42L522.49,520.42z"/>
		</g>
	</g>
	<g>
		<g>
			<path class="st3" d="M130.32,77.37c3.21,0,6.57-1.39,8.84-3.66c2.17-2.17,3.8-5.73,3.66-8.84c-0.14-3.23-1.21-6.59-3.66-8.84
				c-2.45-2.25-5.45-3.66-8.84-3.66c-3.21,0-6.57,1.39-8.84,3.66c-2.17,2.17-3.8,5.73-3.66,8.84c0.14,3.23,1.21,6.59,3.66,8.84
				C123.93,75.95,126.93,77.37,130.32,77.37L130.32,77.37z"/>
		</g>
	</g>
	<g>
		<g>
			<path class="st3" d="M279.43,353.12c3.21,0,6.57-1.39,8.84-3.66c2.17-2.17,3.8-5.73,3.66-8.84c-0.14-3.23-1.21-6.59-3.66-8.84
				c-2.45-2.25-5.45-3.66-8.84-3.66c-3.21,0-6.57,1.39-8.84,3.66c-2.17,2.17-3.8,5.73-3.66,8.84c0.14,3.23,1.21,6.59,3.66,8.84
				C273.03,351.7,276.04,353.12,279.43,353.12L279.43,353.12z"/>
		</g>
	</g>
	<g>
		<g>
			<path class="st3" d="M665.47,52.86c3.21,0,6.57-1.39,8.84-3.66c2.17-2.17,3.8-5.73,3.66-8.84c-0.14-3.23-1.21-6.59-3.66-8.84
				c-2.45-2.25-5.45-3.66-8.84-3.66c-3.21,0-6.57,1.39-8.84,3.66c-2.17,2.17-3.8,5.73-3.66,8.84c0.14,3.23,1.21,6.59,3.66,8.84
				C659.08,51.44,662.08,52.86,665.47,52.86L665.47,52.86z"/>
		</g>
	</g>
	<g>
		<g>
			<path class="st3" d="M532.7,192.42c2.62,0,5.12-2.3,5-5c-0.12-2.71-2.2-5-5-5c-2.62,0-5.12,2.3-5,5
				C527.82,190.13,529.9,192.42,532.7,192.42L532.7,192.42z"/>
		</g>
	</g>
	<g>
		<g>
			<path class="st3" d="M949.38,127.06c2.62,0,5.12-2.3,5-5c-0.12-2.71-2.2-5-5-5c-2.62,0-5.12,2.3-5,5
				C944.51,124.77,946.58,127.06,949.38,127.06L949.38,127.06z"/>
		</g>
	</g>
	<g>
		<g>
			<path class="st3" d="M1073.98,408.93c2.62,0,5.12-2.3,5-5c-0.12-2.71-2.2-5-5-5c-2.62,0-5.12,2.3-5,5
				C1069.1,406.64,1071.18,408.93,1073.98,408.93L1073.98,408.93z"/>
		</g>
	</g>
	<g>
		<g>
			<path class="st3" d="M835,551.91c2.62,0,5.12-2.3,5-5c-0.12-2.71-2.2-5-5-5c-2.62,0-5.12,2.3-5,5
				C830.12,549.62,832.2,551.91,835,551.91L835,551.91z"/>
		</g>
	</g>
	<g>
		<g>
			<path class="st3" d="M1096.45,280.25c2.62,0,5.12-2.3,5-5c-0.12-2.71-2.2-5-5-5c-2.62,0-5.12,2.3-5,5
				C1091.57,277.96,1093.64,280.25,1096.45,280.25L1096.45,280.25z"/>
		</g>
	</g>
	<g>
		<g>
			<path class="st3" d="M1302.75,470.21c2.62,0,5.12-2.3,5-5c-0.12-2.71-2.2-5-5-5c-2.62,0-5.12,2.3-5,5
				C1297.87,467.92,1299.94,470.21,1302.75,470.21L1302.75,470.21z"/>
		</g>
	</g>
	<g>
		<g>
			<path class="st3" d="M1308.87,169.96c2.62,0,5.12-2.3,5-5c-0.12-2.71-2.2-5-5-5c-2.62,0-5.12,2.3-5,5
				C1303.99,167.66,1306.07,169.96,1308.87,169.96L1308.87,169.96z"/>
		</g>
	</g>
	<g>
		<g>
			<path class="st3" d="M1451.85,239.4c2.62,0,5.12-2.3,5-5c-0.12-2.71-2.2-5-5-5c-2.62,0-5.12,2.3-5,5
				C1446.97,237.11,1449.05,239.4,1451.85,239.4L1451.85,239.4z"/>
		</g>
	</g>
	<g>
		<g>
			<path class="st3" d="M1494.75,674.47c2.62,0,5.12-2.3,5-5c-0.12-2.71-2.2-5-5-5c-2.62,0-5.12,2.3-5,5
				C1489.87,672.18,1491.94,674.47,1494.75,674.47L1494.75,674.47z"/>
		</g>
	</g>
	<g>
		<g>
			<path class="st3" d="M1539.68,323.15c2.62,0,5.12-2.3,5-5c-0.12-2.71-2.2-5-5-5c-2.62,0-5.12,2.3-5,5
				C1534.8,320.86,1536.88,323.15,1539.68,323.15L1539.68,323.15z"/>
		</g>
	</g>
	<g>
		<g>
			<path class="st3" d="M1443.68,61.7c2.62,0,5.12-2.3,5-5c-0.12-2.71-2.2-5-5-5c-2.62,0-5.12,2.3-5,5
				C1438.8,59.41,1440.88,61.7,1443.68,61.7L1443.68,61.7z"/>
		</g>
	</g>
	<g>
		<g>
			<path class="st3" d="M1780.7,80.08c2.62,0,5.12-2.3,5-5c-0.12-2.71-2.2-5-5-5c-2.62,0-5.12,2.3-5,5
				C1775.82,77.79,1777.9,80.08,1780.7,80.08L1780.7,80.08z"/>
		</g>
	</g>
	<g>
		<g>
			<path class="st4" d="M471.43,143.4c2.62,0,5.12-2.3,5-5c-0.12-2.71-2.2-5-5-5c-2.62,0-5.12,2.3-5,5
				C466.55,141.11,468.62,143.4,471.43,143.4L471.43,143.4z"/>
		</g>
	</g>
	<g>
		<g>
			<path class="st4" d="M504.11,296.59c2.62,0,5.12-2.3,5-5c-0.12-2.71-2.2-5-5-5c-2.62,0-5.12,2.3-5,5
				C499.23,294.3,501.3,296.59,504.11,296.59L504.11,296.59z"/>
		</g>
	</g>
	<g>
		<g>
			<path class="st4" d="M371.34,494.72c2.62,0,5.12-2.3,5-5c-0.12-2.71-2.2-5-5-5c-2.62,0-5.12,2.3-5,5
				C366.46,492.43,368.54,494.72,371.34,494.72L371.34,494.72z"/>
		</g>
	</g>
	<g>
		<g>
			<path class="st4" d="M375.43,100.51c2.62,0,5.12-2.3,5-5c-0.12-2.71-2.2-5-5-5c-2.62,0-5.12,2.3-5,5
				C370.55,98.22,372.62,100.51,375.43,100.51L375.43,100.51z"/>
		</g>
	</g>
	<g>
		<g>
			<path class="st4" d="M845.21,155.66c2.62,0,5.12-2.3,5-5c-0.12-2.71-2.2-5-5-5c-2.62,0-5.12,2.3-5,5
				C840.34,153.37,842.41,155.66,845.21,155.66L845.21,155.66z"/>
		</g>
	</g>
	<g>
		<g>
			<path class="st4" d="M902.41,649.96c2.62,0,5.12-2.3,5-5c-0.12-2.71-2.2-5-5-5c-2.62,0-5.12,2.3-5,5
				C897.53,647.66,899.6,649.96,902.41,649.96L902.41,649.96z"/>
		</g>
	</g>
	<g>
		<g>
			<path class="st4" d="M1063.77,274.13c2.62,0,5.12-2.3,5-5c-0.12-2.71-2.2-5-5-5c-2.62,0-5.12,2.3-5,5
				C1058.89,271.84,1060.96,274.13,1063.77,274.13L1063.77,274.13z"/>
		</g>
	</g>
	<g>
		<g>
			<path class="st4" d="M1308.87,31.06c2.62,0,5.12-2.3,5-5c-0.12-2.71-2.2-5-5-5c-2.62,0-5.12,2.3-5,5
				C1303.99,28.77,1306.07,31.06,1308.87,31.06L1308.87,31.06z"/>
		</g>
	</g>
	<g>
		<g>
			<path class="st4" d="M1543.77,437.53c2.62,0,5.12-2.3,5-5c-0.12-2.71-2.2-5-5-5c-2.62,0-5.12,2.3-5,5
				C1538.89,435.24,1540.96,437.53,1543.77,437.53L1543.77,437.53z"/>
		</g>
	</g>
	<g>
		<g>
			<path class="st4" d="M1531.51,525.36c2.62,0,5.12-2.3,5-5c-0.12-2.71-2.2-5-5-5c-2.62,0-5.12,2.3-5,5
				C1526.63,523.07,1528.71,525.36,1531.51,525.36L1531.51,525.36z"/>
		</g>
	</g>
	<g>
		<g>
			<path class="st4" d="M1811.34,515.15c2.62,0,5.12-2.3,5-5c-0.12-2.71-2.2-5-5-5c-2.62,0-5.12,2.3-5,5
				C1806.46,512.86,1808.54,515.15,1811.34,515.15L1811.34,515.15z"/>
		</g>
	</g>
	<g>
		<g>
			<path class="st4" d="M1784.79,645.87c2.62,0,5.12-2.3,5-5c-0.12-2.71-2.2-5-5-5c-2.62,0-5.12,2.3-5,5
				C1779.91,643.58,1781.99,645.87,1784.79,645.87L1784.79,645.87z"/>
		</g>
	</g>
	<g>
		<g>
			<path class="st4" d="M1813.38,490.64c2.62,0,5.12-2.3,5-5c-0.12-2.71-2.2-5-5-5c-2.62,0-5.12,2.3-5,5
				C1808.51,488.35,1810.58,490.64,1813.38,490.64L1813.38,490.64z"/>
		</g>
	</g>
	<g>
		<g>
			<path class="st4" d="M1776.62,537.62c2.62,0,5.12-2.3,5-5c-0.12-2.71-2.2-5-5-5c-2.62,0-5.12,2.3-5,5
				C1771.74,535.32,1773.81,537.62,1776.62,537.62L1776.62,537.62z"/>
		</g>
	</g>
	<g>
		<g>
			<path class="st4" d="M553.13,492.68c2.62,0,5.12-2.3,5-5c-0.12-2.71-2.2-5-5-5c-2.62,0-5.12,2.3-5,5
				C548.25,490.39,550.33,492.68,553.13,492.68L553.13,492.68z"/>
		</g>
	</g>
	
		<rect x="588.78" y="383.39" transform="matrix(0.898 -0.4399 0.4399 0.898 -11.8148 813.4711)" class="st5" width="2320.34" height="97.66"/>
	
		<rect x="-143.98" y="6.82" transform="matrix(0.898 -0.4399 0.4399 0.898 -6.501 83.2544)" class="st5" width="640.66" height="97.66"/>
	
		<rect x="-76.01" y="134.91" transform="matrix(0.898 -0.4399 0.4399 0.898 -38.428 122.1631)" class="st5" width="640.66" height="18.14"/>
</g>
<g id="Capa_1">
	<linearGradient id="SVGID_1_" gradientUnits="userSpaceOnUse" x1="-1814.4458" y1="92.9559" x2="-1814.4458" y2="-167.4697">
		<stop  offset="0" style="stop-color:#FFFFFF"/>
		<stop  offset="0.1482" style="stop-color:#E7E6F0"/>
		<stop  offset="0.4645" style="stop-color:#A8A5C9"/>
		<stop  offset="0.9202" style="stop-color:#443E8B"/>
		<stop  offset="1" style="stop-color:#322B80"/>
	</linearGradient>
	<polygon class="st6" points="-2838.53,-162.82 -2493.99,89.86 -1092.03,92.96 -790.36,-167.47 	"/>
	
		<linearGradient id="SVGID_00000091013152444108628140000016036039135054681022_" gradientUnits="userSpaceOnUse" x1="-1797.5947" y1="708.7856" x2="-1797.5947" y2="946.2325">
		<stop  offset="0" style="stop-color:#E7B142;stop-opacity:0.4"/>
		<stop  offset="0.1838" style="stop-color:#DE9D4A;stop-opacity:0.5108"/>
		<stop  offset="0.5758" style="stop-color:#CA6854;stop-opacity:0.7471"/>
		<stop  offset="0.9955" style="stop-color:#B71351"/>
	</linearGradient>
	
		<path style="fill:url(#SVGID_00000091013152444108628140000016036039135054681022_);stroke:#FFFFFF;stroke-width:0.9512;stroke-miterlimit:10;" d="
		M-2821.68,941.64c125.39-76.69,250.78-153.39,376.17-230.08l1352.68-2.77c106.44,79.15,212.88,158.3,319.32,237.45
		C-1456.23,944.7-2138.96,943.17-2821.68,941.64z"/>
	
		<linearGradient id="SVGID_00000085243135021611401740000006320675624923285412_" gradientUnits="userSpaceOnUse" x1="-2844.6584" y1="370.2325" x2="-2431.0415" y2="370.2325">
		<stop  offset="0" style="stop-color:#322B80"/>
		<stop  offset="0.4323" style="stop-color:#2F2A71;stop-opacity:0.7395"/>
		<stop  offset="0.9955" style="stop-color:#2C285B;stop-opacity:0.4"/>
	</linearGradient>
	<path style="fill:url(#SVGID_00000085243135021611401740000006320675624923285412_);" d="M-2843.07-218.02
		c133.7,101.74,267.4,203.48,401.1,305.22c3.64,211.57,7.28,423.14,10.93,634.71l-413.62,236.59
		c2.65-380.94,5.3-761.87,7.95-1142.81"/>
	<rect x="-2453.82" y="70.49" class="st9" width="1375.46" height="650.91"/>
	<ellipse class="st10" cx="-2620.23" cy="395.51" rx="75.83" ry="239.74"/>
	
		<linearGradient id="SVGID_00000117670615890006600560000000098682114554958752_" gradientUnits="userSpaceOnUse" x1="-2093.5044" y1="441.7218" x2="-1447.0894" y2="441.7218">
		<stop  offset="5.327789e-09" style="stop-color:#322B80"/>
		<stop  offset="1" style="stop-color:#80217E"/>
	</linearGradient>
	
		<linearGradient id="SVGID_00000111874035792943962560000009581172660487662227_" gradientUnits="userSpaceOnUse" x1="-2094.0815" y1="441.7218" x2="-1446.512" y2="441.7218">
		<stop  offset="5.327789e-09" style="stop-color:#322B80"/>
		<stop  offset="1" style="stop-color:#80217E;stop-opacity:0.4"/>
	</linearGradient>
	
		<polygon style="fill:url(#SVGID_00000117670615890006600560000000098682114554958752_);stroke:url(#SVGID_00000111874035792943962560000009581172660487662227_);stroke-miterlimit:10;" points="
		-1609.45,722.06 -1932.65,721.19 -2093.5,440.85 -1931.15,161.38 -1607.94,162.25 -1447.09,442.59 	"/>
	
		<linearGradient id="SVGID_00000109014170149521080670000011395879292967300799_" gradientUnits="userSpaceOnUse" x1="-2116.1895" y1="428.2115" x2="-1425.0604" y2="428.2115">
		<stop  offset="5.327789e-09" style="stop-color:#322B80"/>
		<stop  offset="1" style="stop-color:#80217E;stop-opacity:0.4"/>
	</linearGradient>
	
		<polygon style="fill:none;stroke:url(#SVGID_00000109014170149521080670000011395879292967300799_);stroke-width:7.3918;stroke-miterlimit:10;" points="
		-1600.77,724.24 -1942.07,723.32 -2111.92,427.29 -1940.48,132.18 -1599.18,133.1 -1429.33,429.13 	"/>
	
		<linearGradient id="SVGID_00000005234568391860966850000008094249710364449448_" gradientUnits="userSpaceOnUse" x1="-1089.084" y1="365.8389" x2="-660.1479" y2="365.8389">
		<stop  offset="5.327789e-09" style="stop-color:#322B80"/>
		<stop  offset="1" style="stop-color:#80217E"/>
	</linearGradient>
	
		<linearGradient id="SVGID_00000004525931923079370150000005565918652129705372_" gradientUnits="userSpaceOnUse" x1="-1089.5852" y1="366.1538" x2="-659.6406" y2="366.1538">
		<stop  offset="5.327789e-09" style="stop-color:#322B80"/>
		<stop  offset="1" style="stop-color:#80217E;stop-opacity:0.4"/>
	</linearGradient>
	
		<path style="fill:url(#SVGID_00000005234568391860966850000008094249710364449448_);stroke:url(#SVGID_00000004525931923079370150000005565918652129705372_);stroke-miterlimit:10;" d="
		M-669.64-264.13c3.16,432.19,6.33,864.37,9.49,1296.56c-142.98-104.9-285.96-209.81-428.94-314.71
		c1.02-216.66,2.04-433.32,3.06-649.98c129.19-122.83,258.38-245.65,387.57-368.48"/>
	<ellipse class="st10" cx="-970.36" cy="282.15" rx="75.83" ry="239.74"/>
	<ellipse class="st10" cx="-884.57" cy="646.06" rx="42.13" ry="133.19"/>
	<g>
		<g>
			<path class="st2" d="M-2611.81,234.86c3.22,0,3.22-5,0-5C-2615.02,229.86-2615.03,234.86-2611.81,234.86L-2611.81,234.86z"/>
		</g>
	</g>
	<g>
		<g>
			<path class="st2" d="M-2558.19,400.31c3.22,0,3.22-5,0-5C-2561.41,395.31-2561.41,400.31-2558.19,400.31L-2558.19,400.31z"/>
		</g>
	</g>
	<g>
		<g>
			<path class="st2" d="M-2608.74,483.03c3.22,0,3.22-5,0-5C-2611.96,478.03-2611.97,483.03-2608.74,483.03L-2608.74,483.03z"/>
		</g>
	</g>
	<g>
		<g>
			<path class="st2" d="M-2605.68,414.09c3.22,0,3.22-5,0-5C-2608.9,409.09-2608.9,414.09-2605.68,414.09L-2605.68,414.09z"/>
		</g>
	</g>
	<g>
		<g>
			<path class="st2" d="M-995.64,121.5c3.22,0,3.22-5,0-5C-998.85,116.5-998.86,121.5-995.64,121.5L-995.64,121.5z"/>
		</g>
	</g>
	<g>
		<g>
			<path class="st2" d="M-978.79,136.82c3.22,0,3.22-5,0-5C-982,131.82-982.01,136.82-978.79,136.82L-978.79,136.82z"/>
		</g>
	</g>
	<g>
		<g>
			<path class="st2" d="M-1003.3,365.07c3.22,0,3.22-5,0-5C-1006.51,360.07-1006.52,365.07-1003.3,365.07L-1003.3,365.07z"/>
		</g>
	</g>
	<g>
		<g>
			<path class="st2" d="M-943.55,360.48c3.22,0,3.22-5,0-5C-946.77,355.48-946.77,360.48-943.55,360.48L-943.55,360.48z"/>
		</g>
	</g>
	<g>
		<g>
			<path class="st2" d="M-957.34,263.97c3.22,0,3.22-5,0-5C-960.56,258.97-960.56,263.97-957.34,263.97L-957.34,263.97z"/>
		</g>
	</g>
	<g>
		<g>
			<path class="st2" d="M-995.64,447.8c3.22,0,3.22-5,0-5C-998.85,442.8-998.86,447.8-995.64,447.8L-995.64,447.8z"/>
		</g>
	</g>
	<g>
		<g>
			<path class="st2" d="M-885.34,610.18c3.22,0,3.22-5,0-5C-888.56,605.18-888.56,610.18-885.34,610.18L-885.34,610.18z"/>
		</g>
	</g>
	<g>
		<g>
			<path class="st2" d="M-879.21,582.6c3.22,0,3.22-5,0-5C-882.43,577.6-882.43,582.6-879.21,582.6L-879.21,582.6z"/>
		</g>
	</g>
	<g>
		<g>
			<path class="st2" d="M-865.42,683.71c3.22,0,3.22-5,0-5C-868.64,678.71-868.65,683.71-865.42,683.71L-865.42,683.71z"/>
		</g>
	</g>
	<g>
		<g>
			<path class="st2" d="M-2673.89,263c0,0.51,0,1.02,0,1.53c-0.05,1.38,0.24,2.66,0.86,3.85c0.4,1.24,1.09,2.31,2.07,3.22
				c0.91,0.98,1.98,1.66,3.22,2.07c1.19,0.63,2.48,0.91,3.85,0.86c0.89-0.12,1.77-0.24,2.66-0.36c1.69-0.48,3.16-1.33,4.41-2.57
				c0.52-0.67,1.04-1.35,1.56-2.02c0.9-1.56,1.36-3.24,1.37-5.05c0-0.51,0-1.02,0-1.53c0.05-1.38-0.24-2.66-0.86-3.85
				c-0.4-1.24-1.09-2.31-2.07-3.22c-0.91-0.98-1.98-1.66-3.22-2.07c-1.19-0.63-2.48-0.91-3.85-0.86c-0.89,0.12-1.77,0.24-2.66,0.36
				c-1.69,0.48-3.16,1.33-4.41,2.57c-0.52,0.67-1.04,1.35-1.56,2.02C-2673.43,259.51-2673.89,261.19-2673.89,263L-2673.89,263z"/>
		</g>
	</g>
	<g>
		<g>
			<path class="st2" d="M-971.13,489c5.23,0,10.24-4.6,10-10c-0.24-5.42-4.39-10-10-10c-5.23,0-10.24,4.6-10,10
				C-980.88,484.42-976.73,489-971.13,489L-971.13,489z"/>
		</g>
	</g>
	<g>
		<g>
			<path class="st2" d="M-922.11,259.21c5.23,0,10.24-4.6,10-10c-0.24-5.42-4.39-10-10-10c-5.23,0-10.24,4.6-10,10
				C-931.86,254.63-927.71,259.21-922.11,259.21L-922.11,259.21z"/>
		</g>
	</g>
	<g>
		<g>
			<path class="st2" d="M-2573.51,327.42c5.13,0,10.52-2.23,14.14-5.86c1.95-1.81,3.33-3.96,4.14-6.44
				c1.25-2.38,1.83-4.95,1.72-7.71c-0.23-5.17-1.93-10.54-5.86-14.14c-3.91-3.59-8.72-5.86-14.14-5.86
				c-5.13,0-10.52,2.23-14.14,5.86c-1.95,1.81-3.33,3.96-4.14,6.44c-1.25,2.38-1.83,4.95-1.72,7.71c0.23,5.17,1.93,10.54,5.86,14.14
				C-2583.74,325.16-2578.93,327.42-2573.51,327.42L-2573.51,327.42z"/>
		</g>
	</g>
	<g>
		<g>
			<path class="st14" d="M-2653.17,238.83c2.41,0,2.42-3.75,0-3.75C-2655.58,235.08-2655.59,238.83-2653.17,238.83L-2653.17,238.83z
				"/>
		</g>
	</g>
	<g>
		<g>
			<path class="st14" d="M-2650.11,418.06c2.41,0,2.42-3.75,0-3.75C-2652.52,414.31-2652.52,418.06-2650.11,418.06L-2650.11,418.06z
				"/>
		</g>
	</g>
	<g>
		<g>
			<path class="st14" d="M-2598.02,304.7c2.41,0,2.42-3.75,0-3.75C-2600.43,300.95-2600.44,304.7-2598.02,304.7L-2598.02,304.7z"/>
		</g>
	</g>
	<g>
		<g>
			<path class="st14" d="M-2639.38,365.98c2.41,0,2.42-3.75,0-3.75C-2641.79,362.23-2641.8,365.98-2639.38,365.98L-2639.38,365.98z"
				/>
		</g>
	</g>
	<g>
		<g>
			<path class="st14" d="M-2590.36,551.34c2.41,0,2.42-3.75,0-3.75C-2592.77,547.59-2592.78,551.34-2590.36,551.34L-2590.36,551.34z
				"/>
		</g>
	</g>
	<g>
		<g>
			<path class="st14" d="M-2633.25,591.17c2.41,0,2.42-3.75,0-3.75C-2635.67,587.42-2635.67,591.17-2633.25,591.17L-2633.25,591.17z
				"/>
		</g>
	</g>
	<g>
		<g>
			<path class="st14" d="M-2631.72,529.89c2.41,0,2.42-3.75,0-3.75C-2634.14,526.14-2634.14,529.89-2631.72,529.89L-2631.72,529.89z
				"/>
		</g>
	</g>
	<g>
		<g>
			<path class="st14" d="M-1020.15,298.58c2.41,0,2.42-3.75,0-3.75C-1022.56,294.83-1022.56,298.58-1020.15,298.58L-1020.15,298.58z
				"/>
		</g>
	</g>
	<g>
		<g>
			<path class="st14" d="M-992.57,232.7c2.41,0,2.42-3.75,0-3.75C-994.99,228.95-994.99,232.7-992.57,232.7L-992.57,232.7z"/>
		</g>
	</g>
	<g>
		<g>
			<path class="st14" d="M-978.79,304.7c2.41,0,2.42-3.75,0-3.75C-981.2,300.95-981.2,304.7-978.79,304.7L-978.79,304.7z"/>
		</g>
	</g>
	<g>
		<g>
			<path class="st14" d="M-931.3,182.15c2.41,0,2.42-3.75,0-3.75C-933.71,178.4-933.71,182.15-931.3,182.15L-931.3,182.15z"/>
		</g>
	</g>
	<g>
		<g>
			<path class="st14" d="M-954.28,93.3c2.41,0,2.42-3.75,0-3.75C-956.69,89.55-956.69,93.3-954.28,93.3L-954.28,93.3z"/>
		</g>
	</g>
	<g>
		<g>
			<path class="st14" d="M-974.19,214.32c2.41,0,2.42-3.75,0-3.75C-976.6,210.57-976.61,214.32-974.19,214.32L-974.19,214.32z"/>
		</g>
	</g>
	<g>
		<g>
			<path class="st14" d="M-940.49,460.96c2.41,0,2.42-3.75,0-3.75C-942.9,457.21-942.91,460.96-940.49,460.96L-940.49,460.96z"/>
		</g>
	</g>
	<g>
		<g>
			<path class="st14" d="M-929.76,398.15c2.41,0,2.42-3.75,0-3.75C-932.18,394.4-932.18,398.15-929.76,398.15L-929.76,398.15z"/>
		</g>
	</g>
	<g>
		<g>
			<path class="st14" d="M-977.25,411.94c2.41,0,2.42-3.75,0-3.75C-979.67,408.19-979.67,411.94-977.25,411.94L-977.25,411.94z"/>
		</g>
	</g>
	<g>
		<g>
			<path class="st14" d="M-899.13,690.75c2.41,0,2.42-3.75,0-3.75C-901.54,687-901.54,690.75-899.13,690.75L-899.13,690.75z"/>
		</g>
	</g>
	<g>
		<g>
			<path class="st14" d="M-900.66,660.11c2.41,0,2.42-3.75,0-3.75C-903.07,656.36-903.08,660.11-900.66,660.11L-900.66,660.11z"/>
		</g>
	</g>
	<g>
		<g>
			<path class="st14" d="M-877.68,741.3c2.41,0,2.42-3.75,0-3.75C-880.09,737.55-880.1,741.3-877.68,741.3L-877.68,741.3z"/>
		</g>
	</g>
	<g>
		<g>
			<path class="st15" d="M-2666.96,307.83c2.62,0,5.12-2.3,5-5c-0.12-2.71-2.2-5-5-5c-2.62,0-5.12,2.3-5,5
				C-2671.83,305.54-2669.76,307.83-2666.96,307.83L-2666.96,307.83z"/>
		</g>
	</g>
	<g>
		<g>
			<path class="st15" d="M-2653.17,502.38c2.62,0,5.12-2.3,5-5c-0.12-2.71-2.2-5-5-5c-2.62,0-5.12,2.3-5,5
				C-2658.05,500.09-2655.97,502.38-2653.17,502.38L-2653.17,502.38z"/>
		</g>
	</g>
	<g>
		<g>
			<path class="st15" d="M-1004.83,214.38c2.62,0,5.12-2.3,5-5c-0.12-2.71-2.2-5-5-5c-2.62,0-5.12,2.3-5,5
				C-1009.71,212.09-1007.63,214.38-1004.83,214.38L-1004.83,214.38z"/>
		</g>
	</g>
	<g>
		<g>
			<path class="st15" d="M-911.38,340c2.62,0,5.12-2.3,5-5c-0.12-2.71-2.2-5-5-5c-2.62,0-5.12,2.3-5,5
				C-916.26,337.71-914.18,340-911.38,340L-911.38,340z"/>
		</g>
	</g>
	<g>
		<g>
			<path class="st15" d="M-903.72,629.53c2.62,0,5.12-2.3,5-5c-0.12-2.71-2.2-5-5-5c-2.62,0-5.12,2.3-5,5
				C-908.6,627.24-906.53,629.53-903.72,629.53L-903.72,629.53z"/>
		</g>
	</g>
	<g>
		<g>
			<path class="st15" d="M-865.42,655.57c2.62,0,5.12-2.3,5-5c-0.12-2.71-2.2-5-5-5c-2.62,0-5.12,2.3-5,5
				C-870.3,653.28-868.23,655.57-865.42,655.57L-865.42,655.57z"/>
		</g>
	</g>
	<rect x="-1870.36" y="161.89" class="st16" width="196.09" height="76.6"/>
	<rect x="-1782.28" y="163.42" class="st17" width="22.21" height="558.38"/>
	<rect x="-2273.76" y="267.08" class="st18" width="121.53" height="311.49"/>
	<rect x="-2418.79" y="267.08" class="st19" width="121.53" height="82.72"/>
	<rect x="-1410.79" y="408.02" class="st20" width="121.53" height="82.72"/>
	<g>
		<g>
			<path class="st2" d="M-2612.32,268.56c3.22,0,3.22-5,0-5C-2615.54,263.56-2615.54,268.56-2612.32,268.56L-2612.32,268.56z"/>
		</g>
	</g>
	<rect x="-2249.25" y="287.51" class="st2" width="71.49" height="1.53"/>
	<rect x="-2250.02" y="367.17" class="st2" width="51.32" height="1.53"/>
	<rect x="-2247.98" y="357.98" class="st2" width="71.49" height="1.53"/>
	<rect x="-2246.96" y="348.79" class="st2" width="62.04" height="3.06"/>
	<rect x="-2246.96" y="341.64" class="st2" width="71.49" height="1.53"/>
	<rect x="-2248.49" y="308.96" class="st2" width="71.49" height="1.53"/>
	<rect x="-2247.98" y="298.74" class="st2" width="71.49" height="1.53"/>
	<rect x="-3322.36" y="304.62" class="st2" width="71.49" height="1.53"/>
	<rect x="-3323.13" y="384.28" class="st2" width="51.32" height="1.53"/>
	<rect x="-3321.08" y="375.08" class="st2" width="71.49" height="1.53"/>
	<rect x="-3320.06" y="365.89" class="st2" width="62.04" height="3.06"/>
	<rect x="-3320.06" y="358.74" class="st2" width="71.49" height="1.53"/>
	<rect x="-3321.59" y="326.06" class="st2" width="71.49" height="1.53"/>
	<rect x="-3321.08" y="315.85" class="st2" width="71.49" height="1.53"/>
	<rect x="-2248.49" y="396.28" class="st2" width="71.49" height="1.53"/>
	<rect x="-2249.25" y="475.93" class="st2" width="51.32" height="1.53"/>
	<rect x="-2247.21" y="466.74" class="st2" width="71.49" height="1.53"/>
	<rect x="-2246.19" y="457.55" class="st2" width="62.04" height="3.06"/>
	<rect x="-2246.19" y="450.4" class="st2" width="71.49" height="1.53"/>
	<rect x="-2247.72" y="419.25" class="st2" width="71.74" height="20.68"/>
	<rect x="-2247.21" y="407.51" class="st2" width="71.49" height="1.53"/>
	<rect x="-1388.83" y="451.68" class="st2" width="51.32" height="1.53"/>
	<rect x="-1388.49" y="443.17" class="st2" width="71.49" height="1.53"/>
	<rect x="-1388.15" y="433.64" class="st2" width="62.04" height="3.06"/>
	<rect x="-1389.51" y="426.15" class="st2" width="71.49" height="1.53"/>
	<polyline class="st21" points="-2513.76,27.08 -2205.85,-43.38 -2201.25,-162.87 	"/>
	<polyline class="st22" points="-1513.42,-161.34 -1380.15,69.98 -1378.62,226.23 -1177.94,227.76 -1185.59,716.45 	"/>
	<polyline class="st23" points="-2650.11,-66.36 -2648.57,99.08 -2452.49,232.36 -2003.64,235.42 	"/>
	<rect x="-1806.66" y="190.23" class="st2" width="71.49" height="1.53"/>
	<rect x="-1805.89" y="211.68" class="st2" width="71.49" height="1.53"/>
	<rect x="-1805.38" y="201.47" class="st2" width="71.49" height="1.53"/>
	
		<rect x="-3112.27" y="723.89" transform="matrix(0.8322 0.5544 -0.5544 0.8322 25.8274 1620.1682)" class="st24" width="896.17" height="257.74"/>
	
		<rect x="-3178.36" y="754.04" transform="matrix(0.8322 0.5544 -0.5544 0.8322 31.4566 1661.8716)" class="st25" width="896.17" height="257.74"/>
	
		<linearGradient id="SVGID_00000154408324021318215100000018071722721264310672_" gradientUnits="userSpaceOnUse" x1="-585.9272" y1="300.0658" x2="-1442.994" y2="-557.001">
		<stop  offset="5.327789e-09" style="stop-color:#322B80"/>
		<stop  offset="1" style="stop-color:#80217E;stop-opacity:0.4"/>
	</linearGradient>
	<polygon style="opacity:0.36;fill:url(#SVGID_00000154408324021318215100000018071722721264310672_);" points="-696.59,410.73 
		-1634.49,-214.1 -1332.33,-667.66 -394.43,-42.83 	"/>
	
		<linearGradient id="SVGID_00000160894455123624946190000003928197179459826090_" gradientUnits="userSpaceOnUse" x1="-2302.5811" y1="202.5671" x2="-2732.5383" y2="-227.3904" gradientTransform="matrix(1.1455 -0.5446 0.2636 0.5545 363.1721 -1425.615)">
		<stop  offset="5.327789e-09" style="stop-color:#322B80"/>
		<stop  offset="1" style="stop-color:#80217E;stop-opacity:0.4"/>
	</linearGradient>
	<polygon style="fill:url(#SVGID_00000160894455123624946190000003928197179459826090_);" points="-2107.92,-200.19 
		-2894.05,173.57 -2939.82,77.3 -2153.7,-296.46 	"/>
	
		<linearGradient id="SVGID_00000047034432752152577430000017046976963644634783_" gradientUnits="userSpaceOnUse" x1="-2274.7825" y1="430.0405" x2="-2704.74" y2="0.083" gradientTransform="matrix(1.1849 -0.5633 0.0943 0.1983 496.6143 -1433.053)">
		<stop  offset="5.327789e-09" style="stop-color:#322B80"/>
		<stop  offset="1" style="stop-color:#80217E;stop-opacity:0.4"/>
	</linearGradient>
	<polygon style="fill:url(#SVGID_00000047034432752152577430000017046976963644634783_);" points="-2018.45,-163.9 -2831.64,222.73 
		-2848.01,188.29 -2034.82,-198.33 	"/>
	
		<rect x="-1474.27" y="778.55" transform="matrix(0.9031 -0.4294 0.4294 0.9031 -457.836 -365.5565)" class="st29" width="870.46" height="106.6"/>
	
		<rect x="-1755.33" y="703.48" transform="matrix(0.9031 -0.4294 0.4294 0.9031 -429.6753 -442.5398)" class="st29" width="1119.52" height="54.93"/>
	<path class="st30" d="M-16.74,393.72l22.47-16.34L30.24,85.3l34.72,26.55L95.6,553.04l44.94,6.13c0,0,2.04-161.36-4.09-185.87
		C130.32,348.79,163,226.23,163,226.23l22.47,337.02l22.47-98.04l6.13,108.26l79.66,202.21L3.68,524.45L-16.74,393.72z"/>
	<line class="st31" x1="-214.87" y1="281.38" x2="-127.04" y2="197.64"/>
	<path class="st30" d="M2048.62,477.5l-43.73-20.18l-47.7-360.79l-67.58,32.8l-59.63,544.96l-87.46,7.57
		c0,0-3.98-199.32,7.95-229.59c11.93-30.28-51.68-181.65-51.68-181.65l-43.73,416.29l-43.73-121.1l-11.93,133.72L1444.36,949.3
		c197.9-83.74,395.8-167.49,593.7-251.23C2041.58,624.54,2045.1,551.02,2048.62,477.5z"/>
	<path class="st30" d="M283.51,649.04c12.26-10.21,93.96-145.02,93.96-145.02l343.15,216.51l147.06-8.17l18.38-28.6l53.11,51.06
		l288-65.36l337.02,132.77l453.45-120.51l28.6,249.19L-53.51,839l-59.23-318.64l106.21-10.21L283.51,649.04z"/>
	<rect x="-163.81" y="826.74" class="st30" width="2320.34" height="298.21"/>
	<rect x="1008.62" y="820.62" class="st30" width="4.09" height="0"/>
	
		<rect x="-295.55" y="913.55" transform="matrix(0.9972 0.0741 -0.0741 0.9972 81.1528 -61.1697)" class="st32" width="2320.34" height="298.21"/>
	
		<rect x="488.79" y="899.25" transform="matrix(0.992 -0.126 0.126 0.992 -118.9147 216.0457)" class="st33" width="2320.34" height="298.21"/>
	
		<rect x="-385.22" y="858.88" transform="matrix(0.9242 0.382 -0.382 0.9242 426.1578 -47.0993)" class="st34" width="1433.83" height="381.65"/>
	<path class="st35" d="M-36.15,431.51l22.47-16.34l24.51-292.09l34.72,26.55l30.64,441.19l44.94,6.13c0,0,2.04-161.36-4.09-185.87
		c-6.13-24.51,26.55-147.06,26.55-147.06l22.47,337.02L188.53,503l6.13,108.26l79.66,202.21L-15.72,562.23L-36.15,431.51z"/>
	<path class="st36" d="M-91.3,729.3l33.78-21.3l36.85-380.66l52.2,34.61l46.06,574.98l67.55,7.99c0,0,3.07-210.3-6.14-242.24
		s39.92-191.66,39.92-191.66l33.78,439.22l33.78-127.77l9.21,141.08l119.75,263.53c-208.61,36.18-385.99-40.87-435.06-165.45
		c-9.63-24.45-25.75-79.73-0.95-161.98C-70.83,842.87-81.06,786.08-91.3,729.3z"/>
	<path class="st37" d="M2096.11,778.56l-43.73-20.85l-47.7-372.67l-67.58,33.88l-59.63,562.91l-87.46,7.82
		c0,0-3.98-205.88,7.95-237.15c11.93-31.27-51.68-187.64-51.68-187.64l-43.73,430l-43.73-125.09l-11.93,138.12l-155.04,258
		c197.9-86.5,395.8-173.01,593.7-259.51C2089.07,930.44,2092.59,854.5,2096.11,778.56z"/>
	
		<linearGradient id="SVGID_00000015354903959050563400000002081648468735047614_" gradientUnits="userSpaceOnUse" x1="187.843" y1="1049.8552" x2="2523.7659" y2="1049.8552">
		<stop  offset="0" style="stop-color:#322B80;stop-opacity:0"/>
		<stop  offset="0.6039" style="stop-color:#E4E2ED;stop-opacity:0.3399"/>
		<stop  offset="0.924" style="stop-color:#F6F6F6;stop-opacity:0.4"/>
	</linearGradient>
	<path style="fill:url(#SVGID_00000015354903959050563400000002081648468735047614_);" d="M303.89,841.01
		c117.2-84.11,241.99,7.82,428.94-82.72C838.72,707,892.16,632.22,907.46,644.92c29.73,24.68-191.17,291.09-144,341.62
		c29.71,31.82,149.67-39.26,281.87-110.3c422.02-226.78,589.24-312.44,611.23-284.94c27.22,34.03-194.46,208.12-148.6,298.72
		c34.29,67.74,197.55,48.14,214.47,45.96c177.75-22.94,256.49-136.9,571.4-309.45c79.24-43.42,105.26-53.19,131.74-42.89
		c111.56,43.36,137.17,405.89,29.11,600.51c-322.08,580.08-2189.36,312.74-2264.17-84.26
		C176.01,1022.88,221.31,900.27,303.89,841.01z"/>
	
		<ellipse transform="matrix(0.6223 -0.7828 0.7828 0.6223 -221.6326 1030.0126)" class="st39" cx="956.45" cy="744.65" rx="8.44" ry="3.95"/>
	
		<ellipse transform="matrix(0.452 -0.892 0.892 0.452 -153.9522 1269.6436)" class="st40" cx="956.42" cy="760.13" rx="7.74" ry="3.8"/>
	
		<ellipse transform="matrix(0.5775 -0.8164 0.8164 0.5775 -227.3365 1091.3088)" class="st41" cx="940.7" cy="765.3" rx="7.74" ry="3.8"/>
	
		<ellipse transform="matrix(0.4438 -0.8961 0.8961 0.4438 -181.1067 1279.2081)" class="st42" cx="939.98" cy="785.5" rx="10.39" ry="4.99"/>
	
		<ellipse transform="matrix(0.601 -0.7993 0.7993 0.601 -272.5112 1053.7936)" class="st42" cx="919.18" cy="799.83" rx="12.27" ry="6.65"/>
	
		<ellipse transform="matrix(0.3653 -0.9309 0.9309 0.3653 -186.8372 1379.1315)" class="st42" cx="917.89" cy="826.57" rx="12.27" ry="6.65"/>
	
		<ellipse transform="matrix(0.601 -0.7993 0.7993 0.601 -319.209 1046.0934)" class="st42" cx="888.12" cy="842.75" rx="17.68" ry="9.59"/>
	
		<ellipse transform="matrix(0.1744 -0.9847 0.9847 0.1744 -119.4863 1600.5024)" class="st42" cx="894.75" cy="871.51" rx="17.68" ry="9.59"/>
	
		<ellipse transform="matrix(0.7606 -0.6492 0.6492 0.7606 -380.3428 765.7436)" class="st42" cx="848.1" cy="898.58" rx="24.79" ry="12.29"/>
	
		<ellipse transform="matrix(0.3543 -0.9351 0.9351 0.3543 -317.2102 1409.6022)" class="st42" cx="862.06" cy="934.49" rx="24.79" ry="12.29"/>
	
		<ellipse transform="matrix(0.7606 -0.6492 0.6492 0.7606 -430.0529 747.5892)" class="st42" cx="798.63" cy="956.9" rx="36.59" ry="14.38"/>
	
		<ellipse transform="matrix(0.1263 -0.992 0.992 0.1263 -281.1786 1690.6731)" class="st42" cx="819.17" cy="1004.96" rx="36.59" ry="14.38"/>
	
		<ellipse transform="matrix(0.8431 -0.5378 0.5378 0.8431 -442.335 556.3882)" class="st42" cx="732.18" cy="1036.12" rx="46.74" ry="23.03"/>
</g>
<g id="Capa_2">
</g>
</svg>
