<?xml version="1.0" encoding="UTF-8"?><svg id="a" xmlns="http://www.w3.org/2000/svg" xmlns:xlink="http://www.w3.org/1999/xlink" viewBox="0 0 815.04 1101.34"><defs><style>.q{fill:url(#l);}.r{fill:url(#c);}.s{fill:url(#m);}.t{fill:url(#f);}.u{fill:url(#p);}.v{fill:url(#g);}.w{fill:url(#b);}.x{fill:url(#i);}.y{fill:url(#h);}.a`{fill:url(#d);}.aa{fill:url(#e);}.ab{fill:url(#n);}.ac{fill:url(#j);}.ad{fill:url(#o);}.ae{fill:url(#k);}</style><linearGradient id="b" x1="553.6" y1="634.98" x2="553.6" y2="0" gradientTransform="matrix(1, 0, 0, 1, 0, 0)" gradientUnits="userSpaceOnUse"><stop offset="0" stop-color="#c62370"/><stop offset=".47" stop-color="#fff"/><stop offset=".53" stop-color="#f7edee"/><stop offset=".65" stop-color="#e5bfc2"/><stop offset=".81" stop-color="#c6767c"/><stop offset="1" stop-color="#a21c26"/></linearGradient><linearGradient id="c" x1="464.81" y1="757.32" x2="464.81" y2="423.24" gradientTransform="translate(-208.79 257.5) rotate(-25.49)" gradientUnits="userSpaceOnUse"><stop offset="0" stop-color="#80217e" stop-opacity=".5"/><stop offset=".04" stop-color="#852b83" stop-opacity=".52"/><stop offset=".11" stop-color="#954693" stop-opacity=".58"/><stop offset=".2" stop-color="#af73ad" stop-opacity=".69"/><stop offset=".31" stop-color="#d2b1d1" stop-opacity=".82"/><stop offset=".43" stop-color="#fff"/><stop offset=".5" stop-color="#f7edee"/><stop offset=".62" stop-color="#e5bfc2"/><stop offset=".8" stop-color="#c6767c"/><stop offset="1" stop-color="#a21c26"/></linearGradient><linearGradient id="d" x1="236.68" y1="662.54" x2="330.8" y2="608.2" gradientTransform="matrix(1, 0, 0, 1, 0, 0)" gradientUnits="userSpaceOnUse"><stop offset="0" stop-color="#c62370" stop-opacity=".2"/><stop offset=".15" stop-color="#c32269" stop-opacity=".27"/><stop offset=".4" stop-color="#bb2059" stop-opacity=".44"/><stop offset=".73" stop-color="#ae1e3f" stop-opacity=".73"/><stop offset="1" stop-color="#a21c26"/></linearGradient><linearGradient id="e" x1="365.63" y1="724.94" x2="459.75" y2="670.6" xlink:href="#d"/><linearGradient id="f" x1="495.46" y1="788.13" x2="589.58" y2="733.79" xlink:href="#d"/><linearGradient id="g" x1="132.44" y1="965.61" x2="132.44" y2="652.05" gradientTransform="matrix(1, 0, 0, 1, 0, 0)" gradientUnits="userSpaceOnUse"><stop offset="0" stop-color="#fff"/><stop offset=".06" stop-color="#fefdef" stop-opacity=".96"/><stop offset=".19" stop-color="#fcf9c7" stop-opacity=".86"/><stop offset=".36" stop-color="#faf287" stop-opacity=".7"/><stop offset=".55" stop-color="#f7ea3a" stop-opacity=".5"/><stop offset=".62" stop-color="#deaf34" stop-opacity=".64"/><stop offset=".72" stop-color="#c46f2e" stop-opacity=".8"/><stop offset=".81" stop-color="#b14029" stop-opacity=".91"/><stop offset=".91" stop-color="#a52526" stop-opacity=".98"/><stop offset="1" stop-color="#a21c26"/></linearGradient><linearGradient id="h" x1="360.02" y1="962.92" x2="360.02" y2="649.36" gradientTransform="translate(1054.29 595.18) rotate(-118.21) scale(.47 -1)" xlink:href="#g"/><linearGradient id="i" x1="458.43" y1="1008.33" x2="458.43" y2="694.77" gradientTransform="translate(997.17 428.06) rotate(-129.7) scale(.47 -1)" gradientUnits="userSpaceOnUse"><stop offset="0" stop-color="#fff"/><stop offset=".06" stop-color="#fefdef" stop-opacity=".96"/><stop offset=".19" stop-color="#fcf9c7" stop-opacity=".86"/><stop offset=".36" stop-color="#faf287" stop-opacity=".7"/><stop offset=".55" stop-color="#f7ea3a" stop-opacity=".5"/><stop offset=".59" stop-color="#e1b534" stop-opacity=".63"/><stop offset=".66" stop-color="#bf622c" stop-opacity=".83"/><stop offset=".71" stop-color="#a92e27" stop-opacity=".95"/><stop offset=".75" stop-color="#a21c26"/><stop offset="1" stop-color="#009de0" stop-opacity=".2"/></linearGradient><linearGradient id="j" x1="106.19" y1="882.36" x2="106.19" y2="568.8" gradientTransform="translate(1054.29 595.18) rotate(-118.21) scale(.47 -1)" xlink:href="#g"/><linearGradient id="k" x1="418.36" y1="1101.34" x2="418.36" y2="787.77" gradientTransform="matrix(1, 0, 0, 1, 0, 0)" gradientUnits="userSpaceOnUse"><stop offset="0" stop-color="#fff"/><stop offset=".06" stop-color="#fefdef" stop-opacity=".96"/><stop offset=".19" stop-color="#fcf9c7" stop-opacity=".86"/><stop offset=".36" stop-color="#faf287" stop-opacity=".7"/><stop offset=".55" stop-color="#f7ea3a" stop-opacity=".5"/><stop offset=".56" stop-color="#f2dd38" stop-opacity=".49"/><stop offset=".61" stop-color="#d59832" stop-opacity=".46"/><stop offset=".65" stop-color="#be612c" stop-opacity=".43"/><stop offset=".7" stop-color="#ae3b29" stop-opacity=".42"/><stop offset=".74" stop-color="#a52326" stop-opacity=".4"/><stop offset=".79" stop-color="#a21c26" stop-opacity=".4"/><stop offset="1" stop-color="#68a8de"/></linearGradient><linearGradient id="l" x1="282.02" y1="1037.76" x2="282.02" y2="724.2" xlink:href="#g"/><linearGradient id="m" x1="410.8" y1="519.08" x2="410.8" y2="411.84" gradientTransform="translate(207.66 -298.74)" gradientUnits="userSpaceOnUse"><stop offset="0" stop-color="#fff"/><stop offset=".05" stop-color="#faeef4" stop-opacity=".96"/><stop offset=".14" stop-color="#efc4d8" stop-opacity=".87"/><stop offset=".27" stop-color="#de80ac" stop-opacity=".71"/><stop offset=".42" stop-color="#c62370" stop-opacity=".5"/><stop offset=".46" stop-color="#c12266" stop-opacity=".49"/><stop offset=".64" stop-color="#b01e42" stop-opacity=".44"/><stop offset=".82" stop-color="#a51c2d" stop-opacity=".41"/><stop offset="1" stop-color="#a21c26" stop-opacity=".4"/></linearGradient><linearGradient id="n" x1="417.28" y1="485.5" x2="417.28" y2="410.26" gradientTransform="translate(194.36 -298.61)" xlink:href="#m"/><linearGradient id="o" x1="373.9" y1="450.83" x2="373.9" y2="403.85" gradientTransform="translate(801.72 51.71) rotate(90)" xlink:href="#m"/><linearGradient id="p" x1="372.14" y1="393.68" x2="372.14" y2="364.05" gradientTransform="translate(770.24 8.05) rotate(90)" xlink:href="#m"/></defs><path class="w" d="M292.16,454.21C418.23,225.41,567.89,107.79,658.29,49.79,749.9-9,774.62-2.15,785.44,3.83c77.39,42.74-10.61,352.29-107.23,631.15"/><rect class="r" x="228.37" y="517.96" width="472.89" height="144.65" transform="translate(299.28 -142.58) rotate(25.49)"/><polygon class="a`" points="271.79 576.77 326.85 601.37 322.17 678.68 215.56 625.97 271.79 576.77"/><polygon class="aa" points="400.75 639.17 455.8 663.77 451.12 741.09 344.52 688.37 400.75 639.17"/><polygon class="t" points="530.58 702.36 585.63 726.96 580.95 804.28 474.35 751.56 530.58 702.36"/><path class="v" d="M264.59,652.08c-1.26-.72-7.22,9.75-15.32,19.4-47.6,56.79-123.28,31.27-157.28,73.53-32.15,39.96-3.61,111.41,1.02,111.32,3.87-.08-3.47-50.26,28.6-88.85,10.19-12.27,24.68-23.74,27.57-21.45,3.08,2.45-8.13,19.7-18.38,39.83-23.64,46.4-19.62,63.81-32.68,91.91C68.38,941.79-2.63,959.49,.07,964.59c2.79,5.27,80.97-8.92,115.4-66.38,13.63-22.73,22.06-55,30.64-87.83,8.53-32.65,10.69-52.36,28.6-67.4,14.98-12.59,22.41-6.29,41.87-18.38,37.1-23.06,50.51-71.06,48-72.51Z"/><path class="y" d="M373.85,700.51c.91,.17-7,7.57-13.73,15.45-39.58,46.36-.45,65.31-30.21,99.22-28.14,32.07-97.38,54.15-98.32,52.21-.78-1.63,45.05-22.34,72.01-53.73,8.57-9.98,15.49-21.34,12.84-21.44-2.83-.11-15.57,12.65-31.06,26.36-35.69,31.63-51.92,38.21-73.81,56.85-49.86,42.44-49.84,79.91-54.94,81.22-5.26,1.35-9.94-37.4,33.12-78.68,17.04-16.33,43.62-35.04,70.66-54.08,26.89-18.93,43.79-29.14,53.11-43.59,7.8-12.09,.61-12.16,6.99-25.85,12.16-26.11,51.51-54.3,53.34-53.95Z"/><path class="x" d="M287.17,660.61c.93-.01-5.35,8.81-10.38,17.88-29.55,53.31,12.56,64.09-9.85,103.25-21.19,37.03-84.64,72.47-85.95,70.75-1.09-1.44,39.7-30.87,59.86-66.99,6.41-11.48,10.93-24,8.31-23.57-2.8,.46-12.74,15.5-25.18,32.02-28.68,38.1-43.27,47.79-61.01,70.41-40.4,51.52-32.93,88.24-37.66,90.54-4.88,2.37-17.19-34.67,16.79-83.7,13.44-19.4,35.76-43.03,58.47-67.07,22.58-23.91,37.11-37.28,43.36-53.29,5.23-13.4-1.82-12.03,1.7-26.73,6.72-28,39.66-63.47,41.53-63.5Z"/><path class="ac" d="M500.65,766.44c.91,.17-7,7.57-13.73,15.45-39.58,46.36-.45,65.31-30.21,99.22-28.14,32.07-97.38,54.15-98.32,52.21-.78-1.63,45.05-22.34,72.01-53.73,8.57-9.98,15.49-21.34,12.84-21.44-2.83-.11-15.57,12.65-31.06,26.36-35.69,31.63-51.92,38.21-73.81,56.85-49.86,42.44-49.84,79.91-54.94,81.22-5.26,1.35-9.94-37.4,33.12-78.68,17.04-16.33,43.62-35.04,70.66-54.08,26.89-18.93,43.79-29.14,53.11-43.59,7.8-12.09,.61-12.16,6.99-25.85,12.16-26.11,51.51-54.3,53.34-53.95Z"/><path class="ae" d="M550.51,787.81c-1.26-.72-7.22,9.75-15.32,19.4-47.6,56.79-123.28,31.27-157.28,73.53-32.15,39.96-3.61,111.41,1.02,111.32,3.87-.08-3.47-50.26,28.6-88.85,10.19-12.27,24.68-23.74,27.57-21.45,3.08,2.45-8.13,19.7-18.38,39.83-23.64,46.4-19.62,63.81-32.68,91.91-29.74,64-100.74,81.7-98.04,86.81,2.79,5.27,80.97-8.92,115.4-66.38,13.63-22.73,22.06-55,30.64-87.83,8.53-32.65,10.69-52.36,28.6-67.4,14.98-12.59,22.41-6.29,41.87-18.38,37.1-23.06,50.51-71.06,48-72.51Z"/><path class="q" d="M414.17,724.24c-1.26-.72-7.22,9.75-15.32,19.4-47.6,56.79-123.28,31.27-157.28,73.53-32.15,39.96-3.61,111.41,1.02,111.32,3.87-.08-3.47-50.26,28.6-88.85,10.19-12.27,24.68-23.74,27.57-21.45,3.08,2.45-8.13,19.7-18.38,39.83-23.64,46.4-19.62,63.81-32.68,91.91-29.74,64-100.74,81.7-98.04,86.81,2.79,5.27,80.97-8.92,115.4-66.38,13.63-22.73,22.06-55,30.64-87.83,8.53-32.65,10.69-52.36,28.6-67.4,14.98-12.59,22.41-6.29,41.87-18.38,37.1-23.06,50.51-71.06,48-72.51Z"/><ellipse class="s" cx="618.46" cy="166.72" rx="119.49" ry="53.62" transform="translate(45.02 452.13) rotate(-41.55)"/><ellipse class="ab" cx="611.65" cy="149.27" rx="83.83" ry="37.62" transform="translate(54.89 443.22) rotate(-41.55)"/><ellipse class="ad" cx="374.37" cy="425.62" rx="23.49" ry="34.72" transform="translate(-162.41 607.72) rotate(-67.4)"/><ellipse class="u" cx="391.37" cy="380.19" rx="14.81" ry="21.9" transform="translate(-110.01 595.44) rotate(-67.4)"/></svg>